<svg xmlns="http://www.w3.org/2000/svg" viewBox="0 0 374.81 58.01"><defs><style>.cls-1{fill:#fff;}.cls-2{fill:#14b0c7;}.cls-3{fill:#dc1a82;}.cls-4{fill:#ef8013;}.cls-5{fill:#e01446;}.cls-6{fill:#30b9d9;}.cls-7{fill:#603b8e;}.cls-8{fill:#dc1d82;}.cls-9{fill:#e11845;}.cls-10{fill:#ef800e;}</style></defs><title>Artboard 81</title><g id="Layer_1" data-name="Layer 1"><path class="cls-1" d="M107.45,7.14h6.8V46.79h-6.8Z"/><path class="cls-1" d="M141.83,30.08a6.06,6.06,0,0,0-.48-2.38,6.22,6.22,0,0,0-1.33-2,6.65,6.65,0,0,0-2-1.36,5.9,5.9,0,0,0-2.44-.51,5.54,5.54,0,0,0-2.43.54,7,7,0,0,0-2,1.39,6.58,6.58,0,0,0-1.36,2,5.58,5.58,0,0,0-.51,2.32V46.79h-6.57V18.47h6.57v1.64a7.76,7.76,0,0,1,2.75-2.18,8.18,8.18,0,0,1,3.54-.76,12.34,12.34,0,0,1,5,1A13.56,13.56,0,0,1,144.69,21a12.9,12.9,0,0,1,2.81,4.11,12.47,12.47,0,0,1,1,5V46.79h-6.69Z"/><path class="cls-1" d="M161,32.57a8.5,8.5,0,0,0,.71,3.43,9,9,0,0,0,4.7,4.7,8.5,8.5,0,0,0,3.43.71,9.6,9.6,0,0,0,4-.82,7.24,7.24,0,0,0,3-2.41h7.36a17.53,17.53,0,0,1-2.63,4.42,14.66,14.66,0,0,1-3.43,3.06,14.13,14.13,0,0,1-4,1.75,16.4,16.4,0,0,1-4.31.57,15,15,0,0,1-6-1.22A15.58,15.58,0,0,1,159,43.48a15.39,15.39,0,0,1-3.29-4.87,15.66,15.66,0,0,1,0-12.07A15.39,15.39,0,0,1,159,21.67a15.78,15.78,0,0,1,4.88-3.29,15,15,0,0,1,6-1.21,17.49,17.49,0,0,1,4.22.53,14,14,0,0,1,4,1.73,15.73,15.73,0,0,1,3.49,3,16.52,16.52,0,0,1,2.66,4.45h-7.42a7.06,7.06,0,0,0-3.06-2.44,10.3,10.3,0,0,0-3.91-.73,8.33,8.33,0,0,0-3.43.71,8.9,8.9,0,0,0-4.7,4.7A8.45,8.45,0,0,0,161,32.57Z"/><path class="cls-1" d="M195.13,33a8.13,8.13,0,0,0,.8,3.28A9,9,0,0,0,197.85,39,8.88,8.88,0,0,0,204,41.41,8.69,8.69,0,0,0,209,40a8.33,8.33,0,0,0,3.06-3.88h7.19a19.11,19.11,0,0,1-2.54,5.49,14.61,14.61,0,0,1-3.63,3.68,14.42,14.42,0,0,1-4.36,2.07A17.75,17.75,0,0,1,204,48a15,15,0,0,1-6-1.22,15.58,15.58,0,0,1-4.88-3.28,15.41,15.41,0,0,1,0-21.81,15.78,15.78,0,0,1,4.88-3.29A15.2,15.2,0,0,1,215.19,22,15.92,15.92,0,0,1,218.27,27a17.35,17.35,0,0,1,1.16,6Zm16.94-4.42a8.85,8.85,0,0,0-3-4.05,8.44,8.44,0,0,0-10.08,0,8.8,8.8,0,0,0-3,4.05Z"/><path class="cls-1" d="M225.15,32.63a15.49,15.49,0,0,1,1.19-6.09,15.07,15.07,0,0,1,3.29-4.87,15.67,15.67,0,0,1,4.9-3.26,15.34,15.34,0,0,1,6-1.19,15,15,0,0,1,6,1.22,15.37,15.37,0,0,1,8.16,8.16,15.51,15.51,0,0,1,0,12.06,15.37,15.37,0,0,1-8.16,8.16,15,15,0,0,1-6,1.22,13.07,13.07,0,0,1-4.9-1,12.87,12.87,0,0,1-3.93-2.35V58h-6.58Zm6.58,0a8.49,8.49,0,0,0,.7,3.43,9.3,9.3,0,0,0,1.9,2.8,9.12,9.12,0,0,0,2.8,1.9,8.64,8.64,0,0,0,6.86,0,9.12,9.12,0,0,0,2.8-1.9,9,9,0,0,0,1.9-2.8,8.64,8.64,0,0,0,0-6.86,9,9,0,0,0-1.9-2.8,9.12,9.12,0,0,0-2.8-1.9,8.64,8.64,0,0,0-6.86,0,9.12,9.12,0,0,0-2.8,1.9,9.3,9.3,0,0,0-1.9,2.8A8.49,8.49,0,0,0,231.73,32.63Z"/><path class="cls-1" d="M260.5,25V18.47h2.61V7.14h6.57V18.47h6.62V25h-6.62V46.79h-6.57V25Z"/><rect class="cls-1" x="282.25" y="18.47" width="6.68" height="28.32"/><path class="cls-1" d="M315.78,18.47h6.57v16.6a12.26,12.26,0,0,1-1,5,13.69,13.69,0,0,1-2.74,4.11A12.64,12.64,0,0,1,309.5,48a12.27,12.27,0,0,1-5-1A13.36,13.36,0,0,1,297.6,40a12.43,12.43,0,0,1-1-5V18.47h6.57v16.6a5.82,5.82,0,0,0,.51,2.43,6.58,6.58,0,0,0,1.36,2,6.16,6.16,0,0,0,2,1.34,6.43,6.43,0,0,0,2.47.48,6.19,6.19,0,0,0,2.4-.48,6,6,0,0,0,2-1.34,6.41,6.41,0,0,0,1.36-2,5.82,5.82,0,0,0,.51-2.43Z"/><path class="cls-1" d="M330,18.47h6.69v1.59a8.12,8.12,0,0,1,2.77-2.21,7.94,7.94,0,0,1,3.4-.68,11.59,11.59,0,0,1,5.24,1.16,13.36,13.36,0,0,1,4.11,3.14,13.25,13.25,0,0,1,4.33-3.14A12.67,12.67,0,0,1,362,17.17a12.47,12.47,0,0,1,5,1A12.76,12.76,0,0,1,371,21a13.41,13.41,0,0,1,2.75,4.11,12.47,12.47,0,0,1,1,5V46.79h-6.69V30.08a6.06,6.06,0,0,0-.48-2.38,6.22,6.22,0,0,0-1.33-2,6.65,6.65,0,0,0-2-1.36,5.75,5.75,0,0,0-2.38-.51,5.69,5.69,0,0,0-2.41.51,6.52,6.52,0,0,0-2,1.36,6.22,6.22,0,0,0-1.33,2,5.9,5.9,0,0,0-.49,2.38V46.79h-6.68V30.08a6.13,6.13,0,0,0-.48-2.43,6.32,6.32,0,0,0-1.33-2,6.39,6.39,0,0,0-2-1.33,6.21,6.21,0,0,0-2.44-.48,5.69,5.69,0,0,0-2.41.51,6.58,6.58,0,0,0-3.28,3.4,5.88,5.88,0,0,0-.48,2.32V46.79H330Z"/><circle class="cls-2" cx="240.56" cy="32.63" r="4.98"/><path class="cls-3" d="M281.52,8.9c0-5.46,8.12-5.6,8.26,0C289.69,14.16,281.74,14.37,281.52,8.9Z"/><rect class="cls-4" x="296.58" y="5.55" width="78.22" height="6.57" rx="3.29"/><rect class="cls-5" x="296.58" y="5.55" width="25.77" height="6.57" rx="3.29"/><rect class="cls-6" x="63.37" y="-4.09" width="14.35" height="42.3" rx="7.17" transform="translate(8.6 54.87) rotate(-45)"/><rect class="cls-2" x="49.39" y="29.7" width="42.3" height="14.35" rx="7.17" transform="translate(-5.41 60.68) rotate(-45)"/><rect class="cls-7" x="51.48" y="34.76" width="27.99" height="14.35" rx="7.17" transform="translate(-10.47 58.58) rotate(-45)"/><path class="cls-8" d="M50.44,38.27a7,7,0,0,1-.14,1.38,6.93,6.93,0,0,1-.83,2.18c-.18.28-.37.56-.57.83A26.22,26.22,0,0,1,46,46a27,27,0,0,1-29.56,5.78,26.5,26.5,0,0,1-4.18-2.22l-.15-.1a7,7,0,0,1,7.7-11.72l0,0,.09.06A12.77,12.77,0,0,0,25,39.76a12.39,12.39,0,0,0,1.94.15,13,13,0,0,0,10.45-5.32c.14-.19.28-.39.41-.6a7.11,7.11,0,0,1,5.58-2.75A7,7,0,0,1,50.44,38.27Z"/><path class="cls-9" d="M23.08,10.25A7,7,0,0,1,20,16.09l-.09.05,0,0a13.07,13.07,0,0,0-3,2.69,12.91,12.91,0,0,0,0,16.21,13.35,13.35,0,0,0,3,2.7,6.94,6.94,0,0,0-3.77-1.1,7,7,0,0,0-3.93,12.82A26.39,26.39,0,0,1,7.9,46,26.93,26.93,0,0,1,7.9,7.9a26.39,26.39,0,0,1,4.24-3.46l.15-.1a7,7,0,0,1,10.79,5.91Z"/><path class="cls-10" d="M50.44,15.66a7,7,0,0,1-7,7,7.11,7.11,0,0,1-5.58-2.75c-.13-.21-.27-.41-.41-.6A13,13,0,0,0,27,14a12.39,12.39,0,0,0-1.94.15A12.78,12.78,0,0,0,20,16.09,7,7,0,0,0,12.29,4.34a26.5,26.5,0,0,1,4.18-2.22A27.05,27.05,0,0,1,48.9,11.27c.2.28.39.55.57.84a6.79,6.79,0,0,1,.83,2.17A7,7,0,0,1,50.44,15.66Z"/><circle class="cls-2" cx="26.95" cy="27.1" r="7.73"/></g></svg>