<?xml version="1.0" encoding="utf-8"?>
<!-- Generator: Adobe Illustrator 24.0.0, SVG Export Plug-In . SVG Version: 6.00 Build 0)  -->
<svg version="1.1" id="Layer_1" xmlns="http://www.w3.org/2000/svg" xmlns:xlink="http://www.w3.org/1999/xlink" x="0px" y="0px"
	 viewBox="0 0 375.3 58.5" style="enable-background:new 0 0 375.3 58.5;" xml:space="preserve">
<style type="text/css">
	.st0{fill:#FFFFFF;stroke:#FFFFFF;stroke-width:0.5;stroke-miterlimit:10;}
	.st1{fill:#14B0C7;stroke:#14B0C7;stroke-width:0.5;stroke-miterlimit:10;}
	.st2{fill:#DC1A82;stroke:#DC1A82;stroke-width:0.5;stroke-miterlimit:10;}
	.st3{fill:#EF8013;stroke:#EF8013;stroke-width:0.5;stroke-miterlimit:10;}
	.st4{fill:#E01446;stroke:#E01446;stroke-width:0.5;stroke-miterlimit:10;}
	.st5{fill:#30B9D9;stroke:#30B9D9;stroke-width:0.5;stroke-miterlimit:10;}
	.st6{fill:#603B8E;stroke:#603B8E;stroke-width:0.5;stroke-miterlimit:10;}
	.st7{fill:#DC1D82;stroke:#DC1D82;stroke-width:0.5;stroke-miterlimit:10;}
	.st8{fill:#EF800E;stroke:#EF800E;stroke-width:0.5;stroke-miterlimit:10;}
	.st9{fill:#E11845;stroke:#E11845;stroke-width:0.5;stroke-miterlimit:10;}
</style>
<title>Artboard 81</title>
<g>
	<path class="st0" d="M107.7,7.4h6.8V47h-6.8V7.4z"/>
	<path class="st0" d="M142.1,30.3c0-0.8-0.2-1.6-0.5-2.4c-0.3-0.7-0.8-1.4-1.3-2c-0.6-0.6-1.3-1-2-1.4c-0.8-0.3-1.6-0.5-2.4-0.5
		c-0.8,0-1.7,0.2-2.4,0.5c-0.7,0.3-1.4,0.8-2,1.4c-0.6,0.6-1,1.3-1.4,2c-0.3,0.7-0.5,1.5-0.5,2.3V47H123V18.7h6.6v1.6
		c0.7-0.9,1.7-1.7,2.8-2.2c1.1-0.5,2.3-0.8,3.5-0.8c1.7,0,3.4,0.3,5,1c1.5,0.7,2.9,1.6,4.1,2.8c1.2,1.2,2.1,2.6,2.8,4.1
		c0.7,1.6,1,3.3,1,5V47h-6.7L142.1,30.3z"/>
	<path class="st0" d="M161.2,32.8c0,1.2,0.2,2.3,0.7,3.4c0.9,2.1,2.6,3.8,4.7,4.7c1.1,0.5,2.2,0.7,3.4,0.7c1.4,0,2.7-0.3,4-0.8
		c1.2-0.5,2.2-1.4,3-2.4h7.4c-0.7,1.6-1.5,3.1-2.6,4.4c-1,1.2-2.1,2.2-3.4,3.1c-1.2,0.8-2.6,1.4-4,1.8c-1.4,0.4-2.9,0.6-4.3,0.6
		c-2.1,0-4.1-0.4-6-1.2c-1.8-0.8-3.4-1.9-4.8-3.3c-1.4-1.4-2.5-3.1-3.3-4.9c-1.6-3.9-1.6-8.2,0-12.1c0.8-1.8,1.9-3.5,3.3-4.9
		c1.4-1.4,3.1-2.5,4.9-3.3c1.9-0.8,3.9-1.2,6-1.2c1.4,0,2.8,0.2,4.2,0.5c1.4,0.4,2.8,0.9,4,1.7c1.3,0.8,2.5,1.8,3.5,3
		c1.1,1.3,2,2.8,2.7,4.4h-7.4c-0.8-1.1-1.8-1.9-3.1-2.4c-1.2-0.5-2.6-0.7-3.9-0.7c-1.2,0-2.3,0.2-3.4,0.7c-2.1,0.9-3.8,2.6-4.7,4.7
		C161.5,30.5,161.2,31.6,161.2,32.8z"/>
	<path class="st0" d="M195.4,33.3c0,1.1,0.3,2.3,0.8,3.3c0.5,1,1.1,1.9,1.9,2.7c1.7,1.6,3.9,2.4,6.1,2.4c1.8,0.1,3.5-0.4,5-1.4
		c1.4-1,2.5-2.3,3.1-3.9h7.2c-0.5,2-1.4,3.8-2.5,5.5c-1,1.4-2.2,2.7-3.6,3.7c-1.3,0.9-2.8,1.6-4.4,2.1c-1.5,0.4-3.1,0.6-4.7,0.6
		c-2.1,0-4.1-0.4-6-1.2c-1.8-0.8-3.5-1.9-4.9-3.3c-6-6-6-15.8,0-21.8c0,0,0,0,0,0c1.4-1.4,3.1-2.5,4.9-3.3
		c5.9-2.6,12.8-1.1,17.2,3.6c1.3,1.5,2.4,3.2,3.1,5c0.7,1.9,1.1,3.9,1.2,6H195.4z M212.3,28.8c-0.6-1.6-1.6-3-3-4.1
		c-3-2.2-7.1-2.2-10.1,0c-1.4,1-2.4,2.4-3,4L212.3,28.8z"/>
	<path class="st0" d="M225.4,32.9c0-2.1,0.4-4.2,1.2-6.1c0.8-1.8,1.9-3.5,3.3-4.9c1.4-1.4,3.1-2.5,4.9-3.3c1.9-0.8,3.9-1.2,6-1.2
		c2.1,0,4.1,0.4,6,1.2c3.7,1.6,6.6,4.5,8.2,8.2c1.6,3.9,1.6,8.2,0,12.1c-1.6,3.7-4.5,6.6-8.2,8.2c-1.9,0.8-3.9,1.2-6,1.2
		c-1.7,0-3.3-0.4-4.9-1c-1.4-0.5-2.8-1.3-3.9-2.3v13.3h-6.6L225.4,32.9z M232,32.9c0,1.2,0.2,2.3,0.7,3.4c0.5,1,1.1,2,1.9,2.8
		c0.8,0.8,1.8,1.4,2.8,1.9c2.2,0.9,4.7,0.9,6.9,0c1-0.5,2-1.1,2.8-1.9c0.8-0.8,1.4-1.8,1.9-2.8c0.9-2.2,0.9-4.7,0-6.9
		c-0.5-1-1.1-2-1.9-2.8c-0.8-0.8-1.8-1.4-2.8-1.9c-2.2-0.9-4.7-0.9-6.9,0c-1,0.5-2,1.1-2.8,1.9c-0.8,0.8-1.4,1.8-1.9,2.8
		C232.2,30.5,232,31.7,232,32.9z"/>
	<path class="st0" d="M260.7,25.3v-6.5h2.6V7.4h6.6v11.3h6.6v6.5h-6.6V47h-6.6V25.3H260.7z"/>
	<rect x="282.5" y="18.7" class="st0" width="6.7" height="28.3"/>
	<path class="st0" d="M316,18.7h6.6v16.6c0,1.7-0.3,3.4-1,5c-0.7,1.5-1.6,2.9-2.7,4.1c-2.4,2.5-5.7,3.8-9.1,3.8c-1.7,0-3.4-0.3-5-1
		c-3.1-1.4-5.6-3.9-6.9-7c-0.7-1.6-1-3.3-1-5V18.7h6.6v16.6c0,0.8,0.2,1.7,0.5,2.4c0.3,0.7,0.8,1.4,1.4,2c0.6,0.6,1.3,1,2,1.3
		c0.8,0.3,1.6,0.5,2.5,0.5c0.8,0,1.6-0.2,2.4-0.5c0.8-0.3,1.4-0.8,2-1.3c0.6-0.6,1-1.3,1.4-2c0.3-0.8,0.5-1.6,0.5-2.4V18.7z"/>
	<path class="st0" d="M330.2,18.7h6.7v1.6c0.7-0.9,1.7-1.7,2.8-2.2c1.1-0.5,2.2-0.7,3.4-0.7c1.8,0,3.6,0.4,5.2,1.2
		c1.6,0.8,3,1.8,4.1,3.1c1.2-1.3,2.7-2.4,4.3-3.1c1.7-0.8,3.6-1.2,5.5-1.2c1.7,0,3.4,0.3,5,1c1.5,0.7,2.9,1.6,4,2.8
		c1.2,1.2,2.1,2.6,2.8,4.1c0.7,1.6,1,3.3,1,5V47h-6.7V30.3c0-0.8-0.2-1.6-0.5-2.4c-0.3-0.7-0.8-1.4-1.3-2c-0.6-0.6-1.3-1-2-1.4
		c-0.7-0.3-1.6-0.5-2.4-0.5c-0.8,0-1.7,0.2-2.4,0.5c-0.7,0.3-1.4,0.8-2,1.4c-0.6,0.6-1,1.3-1.3,2c-0.3,0.8-0.5,1.6-0.5,2.4V47h-6.7
		V30.3c0-0.8-0.2-1.7-0.5-2.4c-0.3-0.7-0.8-1.4-1.3-2c-0.6-0.6-1.3-1-2-1.3c-0.8-0.3-1.6-0.5-2.4-0.5c-0.8,0-1.7,0.2-2.4,0.5
		c-1.5,0.7-2.6,1.9-3.3,3.4c-0.3,0.7-0.5,1.5-0.5,2.3V47h-6.5V18.7z"/>
	<circle class="st1" cx="240.8" cy="32.9" r="5"/>
	<path class="st2" d="M281.8,9.2c0-5.5,8.1-5.6,8.3,0C289.9,14.4,282,14.6,281.8,9.2z"/>
	<path class="st3" d="M300.1,5.8h71.6c1.8,0,3.3,1.5,3.3,3.3v0c0,1.8-1.5,3.3-3.3,3.3h-71.6c-1.8,0-3.3-1.5-3.3-3.3v0
		C296.8,7.3,298.3,5.8,300.1,5.8z"/>
	<path class="st4" d="M300.1,5.8h19.2c1.8,0,3.3,1.5,3.3,3.3v0c0,1.8-1.5,3.3-3.3,3.3h-19.2c-1.8,0-3.3-1.5-3.3-3.3v0
		C296.8,7.3,298.3,5.8,300.1,5.8z"/>
	<path class="st5" d="M55.8,2.4L55.8,2.4c2.8-2.8,7.3-2.8,10.1,0l19.8,19.8c2.8,2.8,2.8,7.3,0,10.1l0,0c-2.8,2.8-7.3,2.8-10.1,0
		L55.8,12.5C53,9.7,53,5.2,55.8,2.4z"/>
	<path class="st1" d="M55.8,41.9l19.8-19.8c2.8-2.8,7.3-2.8,10.1,0l0,0c2.8,2.8,2.8,7.3,0,10.1L66,52.1c-2.8,2.8-7.3,2.8-10.1,0l0,0
		C53,49.3,53,44.7,55.8,41.9z"/>
	<path class="st6" d="M55.8,41.9l9.7-9.7c2.8-2.8,7.3-2.8,10.1,0l0,0c2.8,2.8,2.8,7.3,0,10.1L66,52.1c-2.8,2.8-7.3,2.8-10.1,0l0,0
		C53,49.3,53,44.7,55.8,41.9z"/>
	<path class="st7" d="M50.7,38.5c0,0.5,0,0.9-0.1,1.4c-0.2,0.8-0.4,1.5-0.8,2.2c-0.2,0.3-0.4,0.6-0.6,0.8c-0.9,1.2-1.8,2.3-2.9,3.3
		c-7.8,7.8-19.4,10-29.6,5.8c-1.5-0.6-2.9-1.4-4.2-2.2l-0.1-0.1c-3.2-2.1-4.1-6.5-2-9.7c2.1-3.2,6.5-4.1,9.7-2l0,0l0.1,0.1
		c1.5,1,3.3,1.7,5.1,2c0.6,0.1,1.3,0.2,1.9,0.2c4.1,0,8-2,10.4-5.3c0.1-0.2,0.3-0.4,0.4-0.6c1.3-1.7,3.4-2.7,5.6-2.7
		C47.5,31.5,50.7,34.6,50.7,38.5C50.7,38.5,50.7,38.5,50.7,38.5z"/>
	<path class="st8" d="M50.7,15.9c0,3.9-3.1,7-7,7c-2.2,0-4.2-1-5.6-2.8c-0.1-0.2-0.3-0.4-0.4-0.6c-2.4-3.3-6.3-5.3-10.5-5.3
		c-0.6,0-1.3,0-1.9,0.1c-1.8,0.3-3.5,0.9-5.1,1.9c3.2-2.1,4.1-6.5,2-9.7s-6.5-4.1-9.7-2c1.3-0.9,2.7-1.6,4.2-2.2
		c11.6-4.9,25.1-1.1,32.4,9.2c0.2,0.3,0.4,0.6,0.6,0.8c0.4,0.7,0.7,1.4,0.8,2.2C50.6,15,50.7,15.5,50.7,15.9z"/>
	<path class="st9" d="M23.3,10.5c0,2.3-1.1,4.5-3.1,5.8l-0.1,0l0,0c-1.1,0.7-2.1,1.6-3,2.7c-3.8,4.7-3.8,11.5,0,16.2
		c0.9,1,1.9,2,3,2.7c-1.1-0.7-2.4-1.1-3.8-1.1c-3.9,0-7,3.1-7,7c0,2.4,1.2,4.6,3.1,5.9c-1.6-1-3-2.2-4.3-3.5
		C-2.4,35.7-2.4,18.7,8.1,8.2c0,0,0,0,0,0c1.3-1.3,2.7-2.5,4.2-3.5l0.1-0.1c3.3-2.1,7.6-1.2,9.7,2.1C22.9,7.8,23.3,9.2,23.3,10.5z"
		/>
	<circle class="st1" cx="27.2" cy="27.4" r="7.7"/>
</g>
</svg>
