<?xml version="1.0" standalone="no"?>
<!DOCTYPE svg PUBLIC "-//W3C//DTD SVG 1.1//EN" "http://www.w3.org/Graphics/SVG/1.1/DTD/svg11.dtd" >
<svg xmlns="http://www.w3.org/2000/svg" xmlns:xlink="http://www.w3.org/1999/xlink" version="1.1">
<metadata>
Created by FontForge 20170731 at Thu Dec 22 12:39:29 2016
 By Aleksey,,,
Copyright (c) 2011 by Monocromo s.n.c. All rights reserved.
</metadata>
<defs>
<font id="Opificio-Bold" horiz-adv-x="700" >
  <font-face 
    font-family="Opificio"
    font-weight="700"
    font-stretch="normal"
    units-per-em="1000"
    panose-1="2 0 8 6 2 0 0 2 0 4"
    ascent="800"
    descent="-200"
    x-height="500"
    cap-height="700"
    bbox="-101 -290 1020 984"
    underline-thickness="50"
    underline-position="-150"
    unicode-range="U+000D-FB02"
  />
<missing-glyph horiz-adv-x="702" 
d="M553 551v-410l-52 -52l-51 51v238l-98 -98l-98 99v-238l-52 -52l-51 52v408l40 40l162 -162l162 162zM252 142v239l-49 48v-336zM551 142v406l-160 -162l-200 200l-36 -36l197 -203v-64l149 149v-340zM50 700h602v-700h-602v700zM70 20h562v660h-562v-660z" />
    <glyph glyph-name="AE" unicode="AE" horiz-adv-x="802" 
d="M224 700h538v-120h-364v-210h300v-119h-300v-131h364v-120h-484v231h-79l-74 -231h-125zM235 330h43v164z" />
    <glyph glyph-name="ae" unicode="ae" horiz-adv-x="1050" 
d="M591 243q1 -31 14 -58t34 -47t49 -31.5t59 -11.5q52 0 89 25.5t54 68.5h127q-17 -57 -45 -97t-64 -65t-77 -36.5t-84 -11.5q-58 0 -107 21q-14 6 -26.5 13t-23.5 15v-28h-116v28q-68 -49 -156 -49q-62 0 -112.5 21t-86 58t-55 86.5t-19.5 106.5t21.5 106.5t58.5 86
t86.5 58t106.5 21.5t106.5 -21.5t85.5 -58.5q10 -9 22 -24q12 15 22 24q37 37 86.5 58.5t106.5 21.5q63 0 113 -23t85 -61.5t54.5 -89.5t20.5 -106h-429zM162 251q0 -32 12.5 -60.5t33.5 -49.5t49.5 -33.5t60.5 -12.5t60.5 11.5t49.5 32.5t33.5 49.5t12.5 62.5
q0 32 -12.5 60.5t-33.5 49.5t-49.5 33.5t-60.5 12.5t-60.5 -12.5t-49.5 -33.5t-33.5 -49.5t-12.5 -60.5zM889 321q-15 42 -53 71.5t-89 29.5t-89 -29.5t-53 -71.5h284z" />
    <glyph glyph-name="OE" unicode="OE" horiz-adv-x="966" 
d="M926 580h-364v-210h300v-119h-300v-131h364v-120h-514q-76 0 -143.5 26t-118.5 72.5t-80.5 110.5t-29.5 141q0 76 29.5 140.5t80.5 111t118.5 72.5t143.5 26h514v-120zM412 120h15t15 1v457q-8 1 -15 1h-15q-52 0 -97.5 -16.5t-80 -46.5t-54.5 -72.5t-20 -93.5
q0 -52 20 -94.5t54.5 -72.5t80 -46.5t97.5 -16.5z" />
    <glyph glyph-name="oe" unicode="oe" horiz-adv-x="1050" 
d="M318 523q66 0 121 -28t93 -76q38 48 93.5 76t121.5 28q63 0 113 -23t85 -61.5t54.5 -89.5t20.5 -106h-429q1 -31 14 -58t34 -47t49 -31.5t59 -11.5q52 0 89 25.5t54 68.5h127q-17 -57 -45 -97t-64 -65t-77 -36.5t-84 -11.5q-66 0 -121.5 27.5t-93.5 75.5
q-37 -48 -92.5 -75.5t-121.5 -27.5q-57 0 -106.5 21.5t-86.5 58t-58.5 86t-21.5 106.5t21.5 106.5t58.5 86t86.5 58t106.5 21.5zM162 251q0 -32 12.5 -60.5t33.5 -49.5t49.5 -33.5t60.5 -12.5t60.5 12.5t49.5 33.5t33.5 49.5t12.5 60.5t-12.5 60.5t-33.5 49.5t-49.5 33.5
t-60.5 12.5t-60.5 -12.5t-49.5 -33.5t-33.5 -49.5t-12.5 -60.5zM889 321q-15 42 -53 71.5t-89 29.5t-89 -29.5t-53 -71.5h284z" />
    <glyph glyph-name="fi" unicode="fi" horiz-adv-x="467" 
d="M284 574q0 12 -8.5 21t-21.5 9t-21.5 -9t-8.5 -21v-152h178v-422h-118v306h-60v-306h-118v306h-46v116h46v152q0 30 11.5 57t31.5 47.5t47 32t58 11.5t58 -11.5t47 -31.5t31.5 -47t11.5 -58v-29h-118v29z" />
    <glyph glyph-name="fl" unicode="fl" horiz-adv-x="467" 
d="M265 306h-41v-306h-118v306h-46v116h46v152q0 30 11.5 57t31.5 47.5t47 32t58 11.5t58 -11.5t47 -31.5t31.5 -47t11.5 -58v-574h-118v574q0 12 -8.5 21t-21.5 9t-21.5 -9t-8.5 -21v-152h41v-116z" />
    <glyph glyph-name=".notdef" horiz-adv-x="702" 
d="M553 551v-410l-52 -52l-51 51v238l-98 -98l-98 99v-238l-52 -52l-51 52v408l40 40l162 -162l162 162zM252 142v239l-49 48v-336zM551 142v406l-160 -162l-200 200l-36 -36l197 -203v-64l149 149v-340zM50 700h602v-700h-602v700zM70 20h562v660h-562v-660z" />
    <glyph glyph-name=".null" horiz-adv-x="0" 
 />
    <glyph glyph-name=".null" horiz-adv-x="0" 
 />
    <glyph glyph-name="nonmarkingreturn" unicode="&#xd;" horiz-adv-x="426" 
 />
    <glyph glyph-name="space" unicode=" " horiz-adv-x="290" 
 />
    <glyph glyph-name="exclam" unicode="!" horiz-adv-x="400" 
d="M223 160h-116v540h116v-540zM229 64q0 -27 -18.5 -45.5t-46.5 -18.5q-27 0 -45.5 18.5t-18.5 45.5q0 28 18.5 46.5t45.5 18.5q28 0 46.5 -18.5t18.5 -46.5z" />
    <glyph glyph-name="quotedbl" unicode="&#x22;" horiz-adv-x="400" 
d="M40 700h109l-25 -200h-60zM170 700h109l-25 -200h-60z" />
    <glyph glyph-name="numbersign" unicode="#" horiz-adv-x="650" 
d="M586 501v-116h-96l-22 -78h73v-116h-106l-54 -191h-114l54 191h-76l-54 -191h-114l54 191h-66v116h99l22 78h-76v116h109l56 199h114l-56 -199h76l56 199h114l-56 -199h63zM278 307h76l22 78h-76z" />
    <glyph glyph-name="percent" unicode="%" 
d="M160 635q0 28 18.5 46.5t45.5 18.5q28 0 46 -18.5t18 -46.5q0 -27 -18 -45.5t-46 -18.5q-27 0 -45.5 18.5t-18.5 45.5zM317 0h-124l226 700h123zM448 64q0 28 18.5 46.5t45.5 18.5q28 0 46 -18.5t18 -46.5q0 -27 -18 -45.5t-46 -18.5q-27 0 -45.5 18.5t-18.5 45.5z" />
    <glyph glyph-name="ampersand" unicode="&#x26;" 
d="M486 83l-38 -37q-34 -34 -75 -52t-86 -18q-43 0 -85 18t-75 51q-30 30 -45 68t-15 80q0 51 23.5 99.5t71.5 86.5l32 26q-27 32 -42 59t-15 62q0 32 12 60t32.5 48.5t48 32.5t59.5 12t60 -12t48.5 -32.5t32.5 -48.5t12 -60q0 -46 -21 -76.5t-55 -54.5l-5 -4l128 -140
l87 88l83 -83l-91 -92l80 -88l-86 -77zM409 169l-133 153l-38 -33q-31 -26 -45 -49.5t-14 -46.5q0 -35 32 -65q16 -17 36 -25t41 -8q22 0 42 7.5t37 24.5zM253 527q0 -14 10.5 -27t21.5 -23q13 8 26.5 21.5t13.5 27.5q0 15 -10.5 25.5t-25.5 10.5t-25.5 -10.5t-10.5 -24.5z
" />
    <glyph glyph-name="quotesingle" unicode="'" horiz-adv-x="250" 
d="M40 700h109l-25 -200h-60z" />
    <glyph glyph-name="parenleft" unicode="(" horiz-adv-x="337" 
d="M216 -57q0 -17 9 -26.5t21 -14.5t23.5 -6.5t17.5 -1.5v-111q-38 0 -72 8t-59.5 26.5t-40.5 49t-15 74.5v724q0 47 13.5 77.5t38.5 48.5t59 25t76 7v-113q-11 0 -23 -1.5t-23 -6t-18 -13.5t-7 -24v-722z" />
    <glyph glyph-name="parenright" unicode=")" horiz-adv-x="337" 
d="M121 665q0 15 -7 24t-18 13.5t-23.5 6t-22.5 1.5v113q42 0 76 -7t59 -25t38.5 -48.5t13.5 -77.5v-724q0 -44 -15 -74.5t-40.5 -49t-59.5 -26.5t-72 -8v111q6 0 17.5 1.5t23.5 6.5t21 14.5t9 26.5v722z" />
    <glyph glyph-name="asterisk" unicode="*" horiz-adv-x="400" 
d="M172 636l-7 64h67l-9 -64l52 39l34 -58l-61 -26l60 -25l-34 -58l-50 40l8 -64h-67l7 64l-50 -39l-34 58l59 25l-59 25l33 58z" />
    <glyph glyph-name="plus" unicode="+" horiz-adv-x="558" 
d="M458 380v-116h-122v-122h-116v122h-120v116h120v120h116v-120h122z" />
    <glyph glyph-name="comma" unicode="," horiz-adv-x="250" 
d="M79 85h123l-79 -236h-123z" />
    <glyph glyph-name="hyphen" unicode="-" horiz-adv-x="518" 
d="M418 319v-116h-318v116h318z" />
    <glyph glyph-name="period" unicode="." horiz-adv-x="250" 
d="M21 62q0 35 24 59.5t59 24.5t59.5 -24.5t24.5 -59.5t-24.5 -59t-59.5 -24t-59 24t-24 59z" />
    <glyph glyph-name="slash" unicode="/" horiz-adv-x="551" 
d="M224 0h-124l228 700h123z" />
    <glyph glyph-name="colon" unicode=":" horiz-adv-x="250" 
d="M55 416q0 35 24 59.5t59 24.5t59.5 -24.5t24.5 -59.5t-24.5 -59t-59.5 -24t-59 24t-24 59zM55 62q0 35 24 59.5t59 24.5t59.5 -24.5t24.5 -59.5t-24.5 -59t-59.5 -24t-59 24t-24 59z" />
    <glyph glyph-name="semicolon" unicode=";" horiz-adv-x="250" 
d="M79 85h123l-79 -236h-123zM55 416q0 35 24 59.5t59 24.5t59.5 -24.5t24.5 -59.5t-24.5 -59t-59.5 -24t-59 24t-24 59z" />
    <glyph glyph-name="less" unicode="&#x3c;" 
d="M150 199v105l408 176v-127l-233 -102l233 -101v-128z" />
    <glyph glyph-name="equal" unicode="=" 
d="M589 411v-116h-478v116h478zM589 236v-116h-478v116h478z" />
    <glyph glyph-name="greater" unicode="&#x3e;" 
d="M150 22v128l232 101l-232 102v127l408 -176v-105z" />
    <glyph glyph-name="question" unicode="?" horiz-adv-x="650" 
d="M342 64q0 -27 -18.5 -45.5t-45.5 -18.5q-28 0 -46 18.5t-18 45.5q0 28 18 46.5t46 18.5q27 0 45.5 -18.5t18.5 -46.5zM219 318h61q28 0 52.5 10.5t42.5 28.5t28.5 42.5t10.5 52.5t-10.5 52.5t-28.5 42.5t-42.5 28.5t-52.5 10.5q-76 0 -119 -69h-121q13 44 37.5 78
t56.5 57.5t69.5 35.5t76.5 12q51 0 96 -19.5t78.5 -53t53 -79t19.5 -96.5q0 -44 -14.5 -83.5t-40.5 -71t-61 -54t-76 -32.5v-50h-116v157z" />
    <glyph glyph-name="at" unicode="@" horiz-adv-x="861" 
d="M215 351q0 45 17 84t46 68t68 46t84 17t84 -17t68 -46t46 -68t17 -84v-226q0 -13 9 -21t21 -8q13 0 21 8t8 21v226q0 57 -21.5 107t-58.5 87t-87 58.5t-107 21.5t-107 -21.5t-87 -58.5t-58.5 -87t-21.5 -107t23.5 -107.5t62.5 -88t91 -59t109 -21.5v-96q-75 0 -144 29.5
t-122 80t-84.5 118t-31.5 144.5t29 144.5t79 118t117.5 79.5t144.5 29t144.5 -28.5t118 -78.5t79.5 -118t29 -146v-247q0 -26 -10 -49t-27 -40t-40 -26.5t-49 -9.5t-49 9.5t-40 26.5t-26.5 40t-9.5 49v68q-53 -36 -120 -36q-45 0 -84 17t-68 46t-46 68t-17 84zM309 351
q0 -25 9.5 -47t25.5 -38t38 -25.5t47 -9.5t47 9.5t38.5 25.5t26 38t9.5 47t-9.5 47t-26 38.5t-38.5 26t-47 9.5t-47 -9.5t-38 -26t-25.5 -38.5t-9.5 -47z" />
    <glyph glyph-name="A" unicode="A" horiz-adv-x="556" 
d="M556 0h-125l-75 231h-158l-73 -231h-125l224 700h108zM235 330h87l-44 164z" />
    <glyph glyph-name="B" unicode="B" horiz-adv-x="605" 
d="M80 0v700h201q52 0 96 -11.5t75.5 -36t49.5 -61.5t18 -88q0 -38 -11.5 -72t-41.5 -58q25 -9 43.5 -26.5t30.5 -40t18 -48.5t6 -51q0 -56 -20.5 -95t-55 -64t-79 -36.5t-91.5 -11.5h-239zM439 208q0 51 -31 70t-89 19h-119v-176h119q22 0 43.5 4.5t38.5 15t27.5 27
t10.5 40.5zM396 503q-1 24 -11.5 39.5t-26 24t-35.5 12t-40 3.5h-83v-167h110q24 0 40.5 7t26.5 19t14.5 28t4.5 34z" />
    <glyph glyph-name="C" unicode="C" horiz-adv-x="777" 
d="M159 350q0 -52 20 -97.5t54.5 -80t80.5 -54.5t98 -20t98 20.5t81 55.5h151q-23 -43 -56.5 -79t-75.5 -62t-92 -40.5t-106 -14.5q-77 0 -144.5 29.5t-118 80t-80 118t-29.5 144.5q0 76 29.5 144t80 118.5t118 80t144.5 29.5q57 0 107 -16t92.5 -43.5t75.5 -63.5t55 -76
h-152q-36 36 -81 57t-97 21t-98 -20t-80.5 -54t-54.5 -80t-20 -97z" />
    <glyph glyph-name="D" unicode="D" horiz-adv-x="718" 
d="M80 700h244q73 0 136.5 -29t110.5 -78t74.5 -114.5t27.5 -137.5t-27.5 -134.5t-74.5 -108.5t-110.5 -72t-136.5 -26h-244v700zM324 120q48 0 89.5 16.5t73 46t49.5 70t18 88.5q0 47 -18 90.5t-49.5 76.5t-73 52.5t-89.5 19.5h-124v-460h124z" />
    <glyph glyph-name="E" unicode="E" horiz-adv-x="604" 
d="M80 700h484v-120h-364v-210h300v-119h-300v-131h364v-120h-484v700z" />
    <glyph glyph-name="F" unicode="F" horiz-adv-x="594" 
d="M80 700h484v-120h-364v-210h300v-119h-300v-251h-120v700z" />
    <glyph glyph-name="G" unicode="G" horiz-adv-x="816" 
d="M766 370q0 -89 -20 -161t-63 -123.5t-110 -79.5t-161 -28q-77 0 -144.5 29.5t-118 80t-80 118t-29.5 144.5q0 76 29.5 144t80 118.5t118 80t144.5 29.5q64 0 118.5 -18t98 -50t75.5 -75.5t52 -94.5h-134q-15 28 -37.5 49.5t-50 36.5t-59 23t-63.5 8q-52 0 -98 -20
t-80.5 -54t-54.5 -80t-20 -97t20 -97t54.5 -80.5t80.5 -54.5t98 -20q98 0 153.5 40t66.5 113h-209v119h343z" />
    <glyph glyph-name="H" unicode="H" horiz-adv-x="644" 
d="M445 700h119v-700h-119v251h-245v-251h-120v700h120v-330h245v330z" />
    <glyph glyph-name="I" unicode="I" horiz-adv-x="280" 
d="M80 700h120v-700h-120v700z" />
    <glyph glyph-name="J" unicode="J" horiz-adv-x="590" 
d="M138 248q0 -46 9.5 -76t26.5 -47.5t39.5 -24.5t48.5 -7q51 0 87 38t36 117v332h-300v120h420v-452q0 -50 -14 -98.5t-43 -86.5t-75.5 -61.5t-110.5 -23.5q-111 0 -176.5 69.5t-65.5 200.5h118z" />
    <glyph glyph-name="K" unicode="K" horiz-adv-x="636" 
d="M199 369l292 331h145l-286 -324l286 -376h-151l-216 284l-70 -79v-205h-119v700h119v-331z" />
    <glyph glyph-name="L" unicode="L" horiz-adv-x="564" 
d="M564 120v-120h-484v700h120v-580h364z" />
    <glyph glyph-name="M" unicode="M" horiz-adv-x="762" 
d="M576 700h106v-700h-120v480l-179 -244l-178 241v-477h-120v700h106l192 -262z" />
    <glyph glyph-name="N" unicode="N" horiz-adv-x="654" 
d="M450 700h119v-700h-107l-257 440v-440h-120v700h108l257 -440v440z" />
    <glyph glyph-name="O" unicode="O" horiz-adv-x="824" 
d="M40 350q0 76 29.5 144t80.5 118.5t118.5 80t143.5 29.5t144 -29.5t118.5 -80t80 -118.5t29.5 -144q0 -77 -29.5 -144.5t-80 -118t-118.5 -80t-144 -29.5t-143.5 29.5t-118.5 80t-80.5 118t-29.5 144.5zM160 350q0 -52 20 -97.5t54.5 -80t80 -54.5t97.5 -20q51 0 97 20
t80.5 54.5t54.5 80t20 97.5q0 51 -20 97t-54.5 80t-80.5 54t-97 20q-52 0 -97.5 -20t-80 -54t-54.5 -80t-20 -97z" />
    <glyph glyph-name="P" unicode="P" horiz-adv-x="584" 
d="M80 700h220q112 0 175.5 -57t63.5 -169q0 -59 -17 -101t-48.5 -69t-75.5 -40t-98 -13h-100v-251h-120v700zM423 474q0 59 -33.5 83.5t-88.5 24.5h-101v-214h101q60 0 91 23t31 83z" />
    <glyph glyph-name="Q" unicode="Q" horiz-adv-x="824" 
d="M40 350q0 76 29.5 144t80.5 118.5t118.5 80t143.5 29.5t144 -29.5t118.5 -80t80 -118.5t29.5 -144q0 -78 -28.5 -145t-80.5 -118q-18 -17 -38 -32.5t-42 -27.5q11 -4 40 -4v-120q-57 0 -98.5 22.5t-60.5 58.5q-32 -6 -64 -6q-76 0 -143.5 29.5t-118.5 80t-80.5 118
t-29.5 144.5zM160 350q0 -51 19.5 -96.5t52.5 -79.5t77.5 -54.5t95.5 -21.5v98q43 0 77.5 -12t54.5 -31l13 -15q10 7 20.5 16t18.5 17q35 35 55 81t20 98q0 51 -20 97t-54.5 80t-80 54t-97.5 20t-97.5 -20t-80 -54t-54.5 -80t-20 -97z" />
    <glyph glyph-name="R" unicode="R" horiz-adv-x="579" 
d="M80 700h220q54 0 98.5 -14.5t75.5 -42.5t48 -70t17 -96q0 -55 -20.5 -102t-59.5 -68q12 -5 26 -13.5t26 -24.5t19.5 -42.5t7.5 -67.5v-159h-120v159q0 27 -9.5 44.5t-24.5 28t-34.5 15t-39.5 4.5h-110v-251h-120v700zM422 478q0 56 -35 82t-86 26h-101v-219h101
q58 0 89.5 26.5t31.5 84.5z" />
    <glyph glyph-name="S" unicode="S" horiz-adv-x="584" 
d="M420 192q0 27 -13.5 46.5t-35.5 33.5t-50.5 24.5t-58.5 21.5q-32 11 -70 26.5t-70.5 39t-54.5 55.5t-22 76q0 42 20 80t53.5 66t77.5 44.5t92 16.5q64 0 108.5 -23.5t73 -56.5t42 -69.5t14.5 -61.5h-122q-10 45 -37.5 71t-79.5 26q-55 0 -88 -26t-33 -61q0 -22 14 -36.5
t34 -25t43.5 -18t43.5 -13.5q42 -14 84.5 -30.5t76.5 -42.5t55.5 -65t21.5 -98q0 -51 -20.5 -91t-55.5 -67t-80.5 -41.5t-94.5 -14.5q-50 0 -96.5 18t-83.5 52.5t-59 84.5t-22 115h120q0 -32 9.5 -60t27.5 -49t44 -33.5t59 -12.5q60 0 96.5 25.5t36.5 73.5z" />
    <glyph glyph-name="T" unicode="T" horiz-adv-x="485" 
d="M0 580v120h485v-120h-183v-580h-119v580h-183z" />
    <glyph glyph-name="U" unicode="U" horiz-adv-x="650" 
d="M200 220q0 -26 9.5 -48t26 -38.5t38.5 -26t48 -9.5t48.5 9.5t39 26t26 38.5t9.5 48v480h120v-480q0 -51 -18.5 -95t-51.5 -77t-77.5 -51.5t-95.5 -18.5t-95 18.5t-77 51.5t-51.5 77t-18.5 95v480h120v-480z" />
    <glyph glyph-name="V" unicode="V" horiz-adv-x="556" 
d="M0 700h125l153 -473l153 473h125l-224 -700h-108z" />
    <glyph glyph-name="W" unicode="W" horiz-adv-x="747" 
d="M372 262l-157 -262h-106l-109 700h120l79 -498l173 261l174 -261l81 498h120l-110 -700h-106z" />
    <glyph glyph-name="X" unicode="X" horiz-adv-x="556" 
d="M271 243l-144 -243h-127l208 349l-208 351h140l145 -244l144 244h127l-208 -350l208 -350h-140z" />
    <glyph glyph-name="Y" unicode="Y" horiz-adv-x="573" 
d="M0 700h134l152 -295l152 295h135l-224 -427v-273h-125v271z" />
    <glyph glyph-name="Z" unicode="Z" horiz-adv-x="636" 
d="M97 700h499l-342 -580h342v-120h-556l341 580h-284v120z" />
    <glyph glyph-name="bracketleft" unicode="[" horiz-adv-x="360" 
d="M100 824h210v-116h-94v-810h94v-116h-210v1042z" />
    <glyph glyph-name="backslash" unicode="\" horiz-adv-x="550" 
d="M100 700h124l226 -700h-123z" />
    <glyph glyph-name="bracketright" unicode="]" horiz-adv-x="360" 
d="M260 -218h-210v116h94v810h-94v116h210v-1042z" />
    <glyph glyph-name="asciicircum" unicode="^" 
d="M298 700h105l176 -408h-127l-102 233l-101 -233h-128z" />
    <glyph glyph-name="underscore" unicode="_" horiz-adv-x="703" 
d="M100 0v116h503v-116h-503z" />
    <glyph glyph-name="grave" unicode="`" horiz-adv-x="492" 
d="M100 748h143l149 -170h-143z" />
    <glyph glyph-name="a" unicode="a" horiz-adv-x="635" 
d="M45 251q0 57 21.5 106.5t58.5 86t86.5 58t106.5 21.5t106.5 -21.5t86 -58t58 -86t21.5 -106.5v-251h-116v28q-68 -49 -156 -49q-62 0 -112.5 21t-86 58t-55 86.5t-19.5 106.5zM162 251q0 -32 12.5 -60.5t33.5 -49.5t49.5 -33.5t60.5 -12.5t60.5 11.5t49.5 32.5t33.5 49.5
t12.5 62.5q0 32 -12.5 60.5t-33.5 49.5t-49.5 33.5t-60.5 12.5t-60.5 -12.5t-49.5 -33.5t-33.5 -49.5t-12.5 -60.5z" />
    <glyph glyph-name="b" unicode="b" horiz-adv-x="659" 
d="M70 700h116v-236q26 24 69.5 41.5t86.5 17.5q57 0 106.5 -21.5t86 -58t58 -86t21.5 -106.5t-21.5 -106.5t-58 -86t-86 -58t-106.5 -21.5t-106.5 21t-86.5 57.5t-58 86t-21 107.5v449zM186 251q0 -32 12.5 -60.5t33.5 -49.5t49.5 -33.5t60.5 -12.5t60.5 12.5t49.5 33.5
t33.5 49.5t12.5 60.5t-12.5 60.5t-33.5 49.5t-49.5 33.5t-60.5 12.5t-60.5 -12.5t-49.5 -33.5t-33.5 -49.5t-12.5 -60.5z" />
    <glyph glyph-name="c" unicode="c" horiz-adv-x="602" 
d="M162 251q0 -32 12.5 -60.5t33.5 -49.5t49.5 -33.5t60.5 -12.5q39 0 71 14.5t52 42.5h130q-19 -45 -46.5 -78t-60.5 -54t-70 -31t-76 -10q-57 0 -106.5 21.5t-86.5 58t-58.5 86t-21.5 106.5t21.5 106.5t58.5 86t86.5 58t106.5 21.5q37 0 74.5 -9.5t71 -30.5t61.5 -53.5
t47 -78.5h-131q-22 30 -54 43t-69 13q-32 0 -60.5 -12.5t-49.5 -33.5t-33.5 -49.5t-12.5 -60.5z" />
    <glyph glyph-name="d" unicode="d" horiz-adv-x="644" 
d="M589 251q0 -58 -21 -107.5t-58 -86t-86.5 -57.5t-106.5 -21t-106.5 21.5t-86 58t-58 86t-21.5 106.5t21.5 106.5t58 86t86 58t106.5 21.5q43 0 86.5 -17.5t69.5 -41.5v236h116v-449zM473 251q0 32 -12.5 60.5t-33.5 49.5t-49.5 33.5t-60.5 12.5t-60.5 -12.5t-49.5 -33.5
t-33.5 -49.5t-12.5 -60.5t12.5 -60.5t33.5 -49.5t49.5 -33.5t60.5 -12.5t60.5 12.5t49.5 33.5t33.5 49.5t12.5 60.5z" />
    <glyph glyph-name="e" unicode="e" horiz-adv-x="621" 
d="M162 243q1 -31 14 -58t34 -47t49 -31.5t59 -11.5q52 0 89 25.5t54 68.5h127q-17 -57 -45 -97t-64 -65t-77 -36.5t-84 -11.5q-57 0 -106.5 21.5t-86.5 58t-58.5 86t-21.5 106.5t21.5 106.5t58.5 86t86.5 58t106.5 21.5q63 0 113 -23t85 -61.5t54.5 -89.5t20.5 -106h-429z
M460 321q-15 42 -53 71.5t-89 29.5t-89 -29.5t-53 -71.5h284z" />
    <glyph glyph-name="f" unicode="f" horiz-adv-x="402" 
d="M284 574q0 12 -8.5 21t-21.5 9t-21.5 -9t-8.5 -21v-152h115v-116h-115v-306h-118v306h-46v116h46v152q0 30 11.5 57t31.5 47.5t47 32t58 11.5t58 -11.5t47 -31.5t31.5 -47t11.5 -58v-29h-118v29z" />
    <glyph glyph-name="g" unicode="g" horiz-adv-x="639" 
d="M317 526q43 0 82.5 -13t73.5 -36v23h116v-451q0 -64 -21.5 -114.5t-58 -85.5t-86 -53.5t-106.5 -18.5q-42 0 -80 12t-69.5 31.5t-55.5 44t-39 50.5l70 73q45 -55 85 -75t89 -20q24 0 50 7.5t47.5 23.5t35.5 41t14 60q-32 -20 -68.5 -31.5t-78.5 -11.5q-43 0 -80 12
q-41 14 -76.5 39.5t-61 59t-40 74.5t-14.5 87q0 57 21.5 106.5t58 86t86 58t106.5 21.5zM161 254q0 -32 12.5 -60.5t33.5 -49.5t49.5 -33.5t60.5 -12.5t60.5 12.5t49.5 33.5t33.5 49.5t12.5 60.5t-12.5 60.5t-33.5 49.5t-49.5 33.5t-60.5 12.5t-60.5 -12.5t-49.5 -33.5
t-33.5 -49.5t-12.5 -60.5z" />
    <glyph glyph-name="h" unicode="h" horiz-adv-x="595" 
d="M75 700h118v-208q49 31 109 31q51 0 93 -18t72 -49t46.5 -72.5t16.5 -88.5v-295h-118v296q0 22 -8.5 42t-23.5 35t-35 23.5t-43 8.5q-21 0 -40.5 -9t-34.5 -24.5t-24 -35.5t-9 -41v-295h-119v700z" />
    <glyph glyph-name="i" unicode="i" horiz-adv-x="263" 
d="M75 500h118v-500h-118v500zM62 669q0 32 21 53t51 21q32 0 53 -21t21 -53q0 -30 -21 -51t-53 -21q-30 0 -51 21t-21 51z" />
    <glyph glyph-name="j" unicode="j" horiz-adv-x="263" 
d="M17 -29q0 -12 8.5 -20.5t20.5 -8.5t20.5 8.5t8.5 20.5v529h118v-529q0 -35 -11.5 -62.5t-31 -46.5t-46.5 -28.5t-58 -9.5q-33 0 -60 11.5t-46.5 31.5t-30 47t-10.5 57h118zM62 669q0 32 21 53t51 21q32 0 53 -21t21 -53q0 -30 -21 -51t-53 -21q-30 0 -51 21t-21 51z" />
    <glyph glyph-name="k" unicode="k" horiz-adv-x="530" 
d="M191 324l183 176h156l-219 -213l219 -287h-151l-155 203l-32 -31v-172h-117v700h116v-376z" />
    <glyph glyph-name="l" unicode="l" horiz-adv-x="258" 
d="M75 700h118v-700h-118v700z" />
    <glyph glyph-name="m" unicode="m" horiz-adv-x="926" 
d="M70 500h118v-28q23 27 49 39t60 12q51 0 92.5 -20.5t72.5 -55.5q32 35 76.5 55.5t95.5 20.5q47 0 88.5 -18t72 -49t48.5 -72.5t18 -88.5v-295h-118v295q0 22 -8.5 42t-23.5 35t-35 24t-42 9q-23 0 -42.5 -9t-34.5 -24t-23.5 -35t-8.5 -42v-295h-118v295q0 23 -8.5 43
t-23.5 35t-35 23.5t-43 8.5t-42.5 -9t-34.5 -24.5t-23.5 -35.5t-8.5 -41v-295h-118v500z" />
    <glyph glyph-name="n" unicode="n" horiz-adv-x="590" 
d="M407 295q0 22 -8.5 42t-23.5 35t-35 24t-43 9t-43 -9.5t-35 -24.5t-24 -35t-9 -41v-295h-116v500h116v-29q20 25 48.5 38.5t62.5 13.5q46 0 87.5 -18t73 -49t49.5 -72.5t18 -88.5v-295h-118v295z" />
    <glyph glyph-name="o" unicode="o" horiz-adv-x="635" 
d="M45 251q0 57 21.5 106.5t58.5 86t86.5 58t106.5 21.5t106.5 -21.5t86 -58t58 -86t21.5 -106.5t-21.5 -106.5t-58 -86t-86 -58t-106.5 -21.5t-106.5 21.5t-86.5 58t-58.5 86t-21.5 106.5zM162 251q0 -32 12.5 -60.5t33.5 -49.5t49.5 -33.5t60.5 -12.5t60.5 12.5t49.5 33.5
t33.5 49.5t12.5 60.5t-12.5 60.5t-33.5 49.5t-49.5 33.5t-60.5 12.5t-60.5 -12.5t-49.5 -33.5t-33.5 -49.5t-12.5 -60.5z" />
    <glyph glyph-name="p" unicode="p" horiz-adv-x="659" 
d="M70 250q0 58 21 107.5t58 86t86.5 57.5t106.5 21t106.5 -21.5t86 -58t58 -86t21.5 -106.5t-21.5 -106.5t-58 -86t-86 -58t-106.5 -21.5q-43 0 -86.5 17.5t-69.5 41.5v-235h-116v448zM186 250q0 -32 12.5 -60.5t33.5 -49.5t49.5 -33.5t60.5 -12.5t60.5 12.5t49.5 33.5
t33.5 49.5t12.5 60.5t-12.5 60.5t-33.5 49.5t-49.5 33.5t-60.5 12.5t-60.5 -12.5t-49.5 -33.5t-33.5 -49.5t-12.5 -60.5z" />
    <glyph glyph-name="q" unicode="q" horiz-adv-x="639" 
d="M589 -198h-116v235q-26 -24 -69.5 -41.5t-86.5 -17.5q-57 0 -106.5 21.5t-86 58t-58 86t-21.5 106.5t21.5 106.5t58 86t86 58t106.5 21.5t106.5 -21t86.5 -57.5t58 -86t21 -107.5v-448zM473 250q0 32 -12.5 60.5t-33.5 49.5t-49.5 33.5t-60.5 12.5t-60.5 -12.5
t-49.5 -33.5t-33.5 -49.5t-12.5 -60.5t12.5 -60.5t33.5 -49.5t49.5 -33.5t60.5 -12.5t60.5 12.5t49.5 33.5t33.5 49.5t12.5 60.5z" />
    <glyph glyph-name="r" unicode="r" horiz-adv-x="384" 
d="M368 400q-32 0 -64.5 -12t-58.5 -35t-42.5 -56.5t-16.5 -75.5v-221h-116v500h116v-66q20 25 45.5 42t52.5 27.5t53 15t47 4.5z" />
    <glyph glyph-name="s" unicode="s" horiz-adv-x="435" 
d="M286 140q0 9 -2 17.5t-9.5 16t-21.5 15t-39 15.5l-56 17q-48 14 -83 50.5t-35 92.5q0 33 14.5 62t39 50.5t57 34t68.5 12.5q42 0 72 -15.5t50 -38t30.5 -48.5t12.5 -47h-117q-1 5 -4 13t-9 15.5t-16 13t-25 5.5q-23 0 -41 -12t-18 -35q0 -12 7.5 -21t19 -15t24.5 -10
t24 -8l55 -19q54 -19 87.5 -58t33.5 -105q0 -38 -15.5 -67.5t-41.5 -50t-60 -31.5t-71 -11q-38 0 -72 14t-59.5 38.5t-40.5 58.5t-15 74h117q0 -14 4 -28t12.5 -25t22 -18.5t33.5 -7.5q30 0 48.5 18t18.5 38z" />
    <glyph glyph-name="t" unicode="t" horiz-adv-x="374" 
d="M65 384v116h46v200h116v-200h117v-116h-117v-384h-116v384h-46z" />
    <glyph glyph-name="u" unicode="u" horiz-adv-x="585" 
d="M404 500h116v-293q0 -47 -18 -88t-48.5 -72.5t-72 -49.5t-88.5 -18t-88 18t-72.5 49.5t-49.5 73t-18 88.5v292h116v-293q0 -23 9 -43t24 -35t35.5 -23.5t43.5 -8.5q22 0 42.5 8.5t35.5 23.5t24 35t9 43v293z" />
    <glyph glyph-name="v" unicode="v" horiz-adv-x="540" 
d="M0 500h127l143 -328l143 328h127l-218 -500h-103z" />
    <glyph glyph-name="w" unicode="w" horiz-adv-x="921" 
d="M739 500h117v-293q0 -47 -18 -88.5t-48.5 -72.5t-72 -49t-88.5 -18q-51 0 -94 20t-75 55q-32 -35 -75 -55t-94 -20q-47 0 -88.5 18t-72 49t-48 72.5t-17.5 88.5v293h116v-293q0 -23 8.5 -43t23.5 -35t35 -24t43 -9q22 0 42.5 9t35.5 24t24 35t9 43v293h118v-293
q0 -24 8.5 -44.5t23.5 -35.5t34.5 -23t42.5 -8q22 0 42 9t35 24t24 35t9 43v293z" />
    <glyph glyph-name="x" unicode="x" horiz-adv-x="515" 
d="M250 147l-91 -147h-129l156 250l-156 250h142l92 -147l92 147h129l-157 -250l157 -250h-142z" />
    <glyph glyph-name="y" unicode="y" horiz-adv-x="585" 
d="M404 500h116v-298q0 -38 -10 -73.5t-31 -65.5t-52.5 -52t-74.5 -32v-177h-117v178q-38 12 -69 34t-53.5 50.5t-35 63.5t-12.5 74v298h118v-298q0 -23 8.5 -43t23.5 -35t35 -24t43 -9q22 0 42.5 8.5t35.5 23.5t24 35t9 43v299z" />
    <glyph glyph-name="z" unicode="z" horiz-adv-x="515" 
d="M83 500h402l-241 -384h241v-116h-455l240 384h-187v116z" />
    <glyph glyph-name="braceleft" unicode="{" horiz-adv-x="407" 
d="M287 -44q0 -17 7 -27.5t17.5 -17t22.5 -9t23 -2.5v-117q-38 0 -72 12t-59.5 33.5t-40 50.5t-14.5 62v262q0 16 -11.5 28.5t-27.5 12.5h-32v117h32q20 0 29.5 14.5t9.5 26.5v263q0 34 14.5 63t40 50t59.5 33t72 12v-117q-28 0 -49 -12t-21 -39v-253q0 -15 -1 -31t-4.5 -30
t-11.5 -24.5t-23 -14.5q15 -5 23 -15.5t12 -24.5t4.5 -29.5t0.5 -29.5v-247z" />
    <glyph glyph-name="bar" unicode="|" horiz-adv-x="316" 
d="M100 823h116v-1037h-116v1037z" />
    <glyph glyph-name="braceright" unicode="}" horiz-adv-x="407" 
d="M120 203q0 14 0.5 29.5t4.5 29.5t12 24.5t23 15.5q-15 4 -23 14.5t-11.5 24.5t-4.5 30t-1 31v253q0 27 -21 39t-49 12v117q38 0 72 -12t59.5 -33t40 -50t14.5 -63v-263q0 -12 9.5 -26.5t29.5 -14.5h32v-117h-32q-16 0 -27.5 -12.5t-11.5 -28.5v-262q0 -33 -14.5 -62
t-40 -50.5t-59.5 -33.5t-72 -12v117q10 0 22.5 2.5t23 9t17.5 17t7 27.5v247z" />
    <glyph glyph-name="asciitilde" unicode="~" 
d="M126 442h117v-71q0 -15 6 -24t18 -9q18 0 29.5 13.5t26.5 29.5t39 29.5t66 13.5q31 0 57.5 -11.5t46.5 -31t31.5 -46t11.5 -57.5v-71h-118v71q0 19 -9 26.5t-21 7.5q-20 0 -31.5 -13.5t-25.5 -30t-36 -30t-62 -13.5q-31 0 -57.5 11.5t-46 31t-31 46t-11.5 57.5v71z" />
    <glyph glyph-name="exclamdown" unicode="&#xa1;" horiz-adv-x="400" 
d="M294 -199h-116v540h116v-540zM300 437q0 -28 -18.5 -46.5t-46.5 -18.5q-27 0 -45.5 18.5t-18.5 46.5q0 27 18.5 45.5t45.5 18.5q28 0 46.5 -18.5t18.5 -45.5z" />
    <glyph glyph-name="section" unicode="&#xa7;" 
d="M622 192q0 -33 -9 -62t-26 -52q16 -17 25.5 -39t9.5 -48q0 -51 -20.5 -91t-55.5 -67t-80.5 -41.5t-94.5 -14.5q-50 0 -96.5 18t-83.5 52.5t-59 84.5t-22 115h120q0 -32 9.5 -60t27.5 -49t44 -33.5t59 -12.5q63 0 97 26t34 60q0 22 -16.5 36.5t-40.5 25t-50.5 18
t-45.5 13.5q-42 14 -84.5 30.5t-76.5 42.5t-55.5 65t-21.5 98q0 38 11.5 69t32.5 57q-12 17 -19 37.5t-7 44.5q0 42 20 80t53.5 66t77.5 44.5t92 16.5q64 0 108.5 -23.5t73 -56.5t42 -69.5t14.5 -61.5h-122q-10 45 -37.5 71t-79.5 26q-55 0 -88 -26t-33 -61q0 -22 14 -36.5
t34 -25t43.5 -18t43.5 -13.5q42 -14 84.5 -30.5t76.5 -42.5t55.5 -65t21.5 -98zM345 318q-23 8 -49 17.5t-52 23.5q-15 -21 -15 -52q0 -27 13.5 -46.5t35.5 -34t50.5 -25t58.5 -20.5q23 -8 50 -17t53 -21q13 23 13 49q0 27 -13.5 46.5t-35.5 33.5t-50.5 24.5t-58.5 21.5z
" />
    <glyph glyph-name="dieresis" unicode="&#xa8;" horiz-adv-x="521" 
d="M100 644q0 27 18 45.5t46 18.5t46 -18.5t18 -45.5q0 -28 -18 -46.5t-46 -18.5t-46 18.5t-18 46.5zM293 644q0 27 18 45.5t46 18.5t46 -18.5t18 -45.5q0 -28 -18 -46.5t-46 -18.5t-46 18.5t-18 46.5z" />
    <glyph glyph-name="copyright" unicode="&#xa9;" horiz-adv-x="864" 
d="M316 350q0 -24 9.5 -46t26 -39t38 -27t45.5 -10q45 0 73.5 22t40.5 53h92q-10 -40 -30 -72t-47.5 -54t-60.5 -34t-68 -12q-44 0 -83.5 17t-69.5 46.5t-47.5 69.5t-17.5 86t17.5 86t47.5 69.5t69.5 46.5t83.5 17q34 0 68 -12t62.5 -34.5t48.5 -54.5t27 -71h-96
q-12 38 -40 56t-70 18q-24 0 -45.5 -9.5t-38 -26t-26 -38.5t-9.5 -47zM60 351q0 76 29.5 144t80 118.5t118 80t144.5 29.5q76 0 144 -29.5t118.5 -80t80 -118.5t29.5 -144q0 -77 -29.5 -144.5t-80 -118t-118.5 -80t-144 -29.5q-77 0 -144.5 29.5t-118 80t-80 118
t-29.5 144.5zM161 352q0 -56 21.5 -105.5t59 -86.5t86.5 -58.5t105 -21.5q54 0 103 21.5t85.5 58.5t58.5 86.5t22 105.5q0 54 -22 103t-58.5 85.5t-85.5 58.5t-103 22q-56 0 -105 -22t-86.5 -58.5t-59 -85.5t-21.5 -103z" />
    <glyph glyph-name="ordfeminine" unicode="&#xaa;" horiz-adv-x="517" 
d="M339 388q-47 -33 -106 -33q-38 0 -71.5 14.5t-58 39t-39 58t-14.5 71.5t14.5 71.5t39 58.5t58 39.5t71.5 14.5t71.5 -14.5t58.5 -39.5t39.5 -58.5t14.5 -71.5v-183h-78v33zM128 538q0 -22 8 -41.5t22.5 -34t33.5 -23t41 -8.5t41.5 8.5t33.5 23t22.5 34t8.5 41.5
t-8.5 41.5t-22.5 34.5t-33.5 23.5t-41.5 8.5t-41 -8.5t-33.5 -23.5t-22.5 -34.5t-8 -41.5z" />
    <glyph glyph-name="guillemotleft" unicode="&#xab;" horiz-adv-x="720" 
d="M559 499l81 -82l-177 -168l177 -168l-81 -82l-260 250zM339 499l82 -82l-178 -168l178 -168l-82 -82l-259 250z" />
    <glyph glyph-name="logicalnot" unicode="&#xac;" 
d="M511 122h-116v123h-225v116h341v-239z" />
    <glyph glyph-name="registered" unicode="&#xae;" horiz-adv-x="864" 
d="M305 536h131q66 0 104 -27t38 -93q0 -27 -10 -51.5t-29 -35.5q7 -3 14 -12.5t12 -23t8.5 -29.5t3.5 -32v-59h-107v54q0 16 -7 31t-27 15h-24v-100h-107v363zM437 377q18 0 26.5 6t8.5 22q0 17 -10 23t-25 6h-25v-57h25zM60 351q0 76 29.5 144t80 118.5t118 80t144.5 29.5
q76 0 144 -29.5t118.5 -80t80 -118.5t29.5 -144q0 -77 -29.5 -144.5t-80 -118t-118.5 -80t-144 -29.5q-77 0 -144.5 29.5t-118 80t-80 118t-29.5 144.5zM161 351q0 -55 21.5 -104.5t58.5 -86.5t86.5 -58.5t104.5 -21.5t104.5 21.5t86.5 58.5t58.5 86.5t21.5 104.5
t-21.5 104.5t-58.5 86.5t-86.5 58.5t-104.5 21.5t-104.5 -21.5t-86.5 -58.5t-58.5 -86.5t-21.5 -104.5z" />
    <glyph glyph-name="degree" unicode="&#xb0;" horiz-adv-x="400" 
d="M100 605q0 19 7.5 36.5t20 30.5t29.5 20.5t37 7.5q19 0 36.5 -7.5t30.5 -20.5t20.5 -30.5t7.5 -36.5q0 -20 -7.5 -37t-20.5 -29.5t-30.5 -20t-36.5 -7.5q-20 0 -37 7.5t-29.5 20t-20 29.5t-7.5 37zM161 605q0 -14 9.5 -23.5t23.5 -9.5t24 9.5t10 23.5t-10 24t-24 10
t-23.5 -10t-9.5 -24z" />
    <glyph glyph-name="plusminus" unicode="&#xb1;" horiz-adv-x="558" 
d="M458 380v-116h-122v-122h-116v122h-120v116h120v120h116v-120h122zM458 116v-116h-358v116h358z" />
    <glyph glyph-name="twosuperior" unicode="&#xb2;" horiz-adv-x="330" 
d="M30 413l133 162q1 1 3 5q1 2 2 6t1 9q0 15 -9.5 25.5t-24.5 10.5q-20 0 -27 -14t-7 -30h-71q0 22 7 42.5t20.5 36.5t33 25t44.5 9q22 0 41 -8.5t33 -22.5t22.5 -33t8.5 -41q0 -20 -7 -38t-19 -32l-92 -112h118v-71h-210v71z" />
    <glyph glyph-name="threesuperior" unicode="&#xb3;" horiz-adv-x="370" 
d="M50 700h210v-71l-44 -54q29 -17 46.5 -45t17.5 -63q0 -26 -10 -48.5t-27 -39.5t-39.5 -27t-48.5 -10t-48.5 10t-39.5 27t-27 39.5t-10 48.5h71q0 -23 15.5 -39.5t38.5 -16.5t38.5 16.5t15.5 39.5t-15.5 39.5t-38.5 16.5h-25v60l37 46h-117v71z" />
    <glyph glyph-name="acute" unicode="&#xb4;" horiz-adv-x="492" 
d="M243 578h-143l149 170h143z" />
    <glyph glyph-name="mu" unicode="&#xb5;" 
d="M474 500h116v-272q0 -47 -18 -88t-48.5 -72.5t-72 -49.5t-88.5 -18q-61 0 -111 29v-227h-116v698h116v-272q0 -23 9 -43t24 -35t35 -23.5t43 -8.5q22 0 42.5 8.5t35.5 23.5t24 35t9 43v272z" />
    <glyph glyph-name="mu" unicode="&#x3bc;" 
d="M474 500h116v-272q0 -47 -18 -88t-48.5 -72.5t-72 -49.5t-88.5 -18q-61 0 -111 29v-227h-116v698h116v-272q0 -23 9 -43t24 -35t35 -23.5t43 -8.5q22 0 42.5 8.5t35.5 23.5t24 35t9 43v272z" />
    <glyph glyph-name="paragraph" unicode="&#xb6;" horiz-adv-x="872" 
d="M649 580v-778h-119v778h-85v-778h-120v449h-26q-112 0 -175.5 53t-63.5 170q0 112 63.5 169t175.5 57h513v-120h-163z" />
    <glyph glyph-name="periodcentered" unicode="&#xb7;" horiz-adv-x="250" 
d="M43 308q0 35 24 59.5t59 24.5t59.5 -24.5t24.5 -59.5t-24.5 -59t-59.5 -24t-59 24t-24 59z" />
    <glyph glyph-name="cedilla" unicode="&#xb8;" horiz-adv-x="410" 
d="M216 60v-113q39 -11 66.5 -43t27.5 -74q0 -26 -10 -47.5t-26.5 -38t-38.5 -25.5t-46 -9h-89v106h79q14 0 14 14t-14 14h-79v216h116z" />
    <glyph glyph-name="onesuperior" unicode="&#xb9;" horiz-adv-x="280" 
d="M190 700v-358h-81v287h-79v71h160z" />
    <glyph glyph-name="ordmasculine" unicode="&#xba;" horiz-adv-x="517" 
d="M50 538q0 38 14 71.5t39 58.5t58.5 39.5t71.5 14.5t71.5 -14.5t58.5 -39.5t39.5 -58.5t14.5 -71.5t-14.5 -71.5t-39.5 -58.5t-58.5 -39t-71.5 -14t-71.5 14t-58.5 39t-39 58.5t-14 71.5zM128 538q0 -22 8 -41.5t22.5 -34t33.5 -23t41 -8.5t41.5 8.5t33.5 23t22.5 34
t8.5 41.5t-8.5 41.5t-22.5 34.5t-33.5 23.5t-41.5 8.5t-41 -8.5t-33.5 -23.5t-22.5 -34.5t-8 -41.5z" />
    <glyph glyph-name="guillemotright" unicode="&#xbb;" horiz-adv-x="720" 
d="M421 249l-260 -250l-81 82l177 168l-177 168l81 82zM640 249l-259 -250l-82 82l178 168l-178 168l82 82z" />
    <glyph glyph-name="questiondown" unicode="&#xbf;" horiz-adv-x="650" 
d="M308 636q0 27 18.5 45.5t45.5 18.5q28 0 46 -18.5t18 -45.5q0 -28 -18 -46.5t-46 -18.5q-27 0 -45.5 18.5t-18.5 46.5zM431 382h-61q-28 0 -52.5 -10.5t-42.5 -28.5t-28.5 -42.5t-10.5 -52.5t10.5 -52.5t28.5 -42.5t42.5 -28.5t52.5 -10.5q75 0 119 69h121
q-29 -89 -94.5 -136t-145.5 -47q-51 0 -96 19.5t-78.5 53t-53 79t-19.5 96.5q0 44 14.5 83.5t40.5 71t61 54t76 32.5v51h116v-158z" />
    <glyph glyph-name="Agrave" unicode="&#xc0;" horiz-adv-x="556" 
d="M57 945h143l149 -170h-143zM235 330h87l-44 164zM556 0h-125l-75 231h-158l-73 -231h-125l224 700h108z" />
    <glyph glyph-name="Aacute" unicode="&#xc1;" horiz-adv-x="556" 
d="M348 775h-143l149 170h143zM235 330h87l-44 164zM556 0h-125l-75 231h-158l-73 -231h-125l224 700h108z" />
    <glyph glyph-name="Acircumflex" unicode="&#xc2;" horiz-adv-x="556" 
d="M331 944l120 -170h-133l-40 56l-42 -56h-132l119 170h108zM235 330h87l-44 164zM556 0h-125l-75 231h-158l-73 -231h-125l224 700h108z" />
    <glyph glyph-name="Atilde" unicode="&#xc3;" horiz-adv-x="556" 
d="M432 880q-25 -42 -56 -63.5t-63 -21.5q-34 0 -65 17q-3 1 -21 -28l-102 61q24 43 56 64.5t64 21.5q16 0 33 -4t32 -13q2 1 7.5 7t13.5 20zM235 330h87l-44 164zM556 0h-125l-75 231h-158l-73 -231h-125l224 700h108z" />
    <glyph glyph-name="Adieresis" unicode="&#xc4;" horiz-adv-x="556" 
d="M118 859q0 27 18 45.5t46 18.5t46 -18.5t18 -45.5q0 -28 -18 -46.5t-46 -18.5t-46 18.5t-18 46.5zM311 859q0 27 18 45.5t46 18.5t46 -18.5t18 -45.5q0 -28 -18 -46.5t-46 -18.5t-46 18.5t-18 46.5zM235 330h87l-44 164zM556 0h-125l-75 231h-158l-73 -231h-125l224 700
h108z" />
    <glyph glyph-name="Aring" unicode="&#xc5;" horiz-adv-x="556" 
d="M556 0h-125l-75 231h-158l-73 -231h-125l224 700h108zM235 330h87l-44 164zM245 879q0 -14 9.5 -23.5t23.5 -9.5t24 9.5t10 23.5t-10 24t-24 10t-23.5 -10t-9.5 -24zM174 879q0 22 8 41t22 33t33 22.5t41 8.5t41 -8.5t33 -22.5t22.5 -33t8.5 -41t-8.5 -41t-22.5 -33
t-33 -22t-41 -8q-44 0 -74 30t-30 74z" />
    <glyph glyph-name="Ccedilla" unicode="&#xc7;" horiz-adv-x="777" 
d="M159 350q0 -52 20 -97.5t54.5 -80t80.5 -54.5t98 -20t98 20.5t81 55.5h151q-42 -78 -114.5 -129.5t-167.5 -63.5v-27q39 -11 66.5 -43t27.5 -74q0 -26 -10 -47.5t-26.5 -38t-38.5 -25.5t-46 -9h-89v106h79q14 0 14 14t-14 14h-79v134q-65 12 -120.5 45t-96 81.5
t-64 109.5t-23.5 129q0 76 29.5 144t80 118.5t118 80t144.5 29.5q57 0 107 -16t92.5 -43.5t75.5 -63.5t55 -76h-152q-36 36 -81 57t-97 21t-98 -20t-80.5 -54t-54.5 -80t-20 -97z" />
    <glyph glyph-name="Egrave" unicode="&#xc8;" horiz-adv-x="604" 
d="M80 700h484v-120h-364v-210h300v-119h-300v-131h364v-120h-484v700zM107 945h143l149 -170h-143z" />
    <glyph glyph-name="Eacute" unicode="&#xc9;" horiz-adv-x="604" 
d="M80 700h484v-120h-364v-210h300v-119h-300v-131h364v-120h-484v700zM355 775h-143l149 170h143z" />
    <glyph glyph-name="Ecircumflex" unicode="&#xca;" horiz-adv-x="604" 
d="M80 700h484v-120h-364v-210h300v-119h-300v-131h364v-120h-484v700zM372 945l120 -170h-133l-40 56l-42 -56h-132l119 170h108z" />
    <glyph glyph-name="Edieresis" unicode="&#xcb;" horiz-adv-x="604" 
d="M80 700h484v-120h-364v-210h300v-119h-300v-131h364v-120h-484v700zM170 859q0 27 18 45.5t46 18.5t46 -18.5t18 -45.5q0 -28 -18 -46.5t-46 -18.5t-46 18.5t-18 46.5zM363 859q0 27 18 45.5t46 18.5t46 -18.5t18 -45.5q0 -28 -18 -46.5t-46 -18.5t-46 18.5t-18 46.5z
" />
    <glyph glyph-name="Igrave" unicode="&#xcc;" horiz-adv-x="280" 
d="M80 700h120v-700h-120v700zM-83 945h143l149 -170h-143z" />
    <glyph glyph-name="Iacute" unicode="&#xcd;" horiz-adv-x="280" 
d="M80 700h120v-700h-120v700zM212 775h-143l149 170h143z" />
    <glyph glyph-name="Icircumflex" unicode="&#xce;" horiz-adv-x="280" 
d="M80 700h120v-700h-120v700zM193 945l120 -170h-133l-40 56l-42 -56h-132l119 170h108z" />
    <glyph glyph-name="Idieresis" unicode="&#xcf;" horiz-adv-x="280" 
d="M80 700h120v-700h-120v700zM-20 859q0 27 18 45.5t46 18.5t46 -18.5t18 -45.5q0 -28 -18 -46.5t-46 -18.5t-46 18.5t-18 46.5zM173 859q0 27 18 45.5t46 18.5t46 -18.5t18 -45.5q0 -28 -18 -46.5t-46 -18.5t-46 18.5t-18 46.5z" />
    <glyph glyph-name="Eth" unicode="&#xd0;" horiz-adv-x="820" 
d="M182 700h244q72 0 136 -27.5t111 -74.5t74.5 -111t27.5 -136t-27.5 -136t-74.5 -112t-111 -75.5t-136 -27.5h-244v290h-92v120h92v290zM460 410v-120h-159v-170h125q47 0 89 18t73 49.5t49 73.5t18 90q0 47 -18 89t-49 73t-73 49t-89 18h-125v-170h159z" />
    <glyph glyph-name="Ntilde" unicode="&#xd1;" horiz-adv-x="654" 
d="M450 700h119v-700h-107l-257 440v-440h-120v700h108l257 -440v440zM472 880q-25 -42 -56 -63.5t-63 -21.5q-34 0 -65 17q-3 1 -21 -28l-102 61q24 43 56 64.5t64 21.5q16 0 33 -4t32 -13q2 1 7.5 7t13.5 20z" />
    <glyph glyph-name="Ograve" unicode="&#xd2;" horiz-adv-x="824" 
d="M40 350q0 76 29.5 144t80.5 118.5t118.5 80t143.5 29.5t144 -29.5t118.5 -80t80 -118.5t29.5 -144q0 -77 -29.5 -144.5t-80 -118t-118.5 -80t-144 -29.5t-143.5 29.5t-118.5 80t-80.5 118t-29.5 144.5zM160 350q0 -52 20 -97.5t54.5 -80t80 -54.5t97.5 -20q51 0 97 20
t80.5 54.5t54.5 80t20 97.5q0 51 -20 97t-54.5 80t-80.5 54t-97 20q-52 0 -97.5 -20t-80 -54t-54.5 -80t-20 -97zM193 945h143l149 -170h-143z" />
    <glyph glyph-name="Oacute" unicode="&#xd3;" horiz-adv-x="824" 
d="M40 350q0 76 29.5 144t80.5 118.5t118.5 80t143.5 29.5t144 -29.5t118.5 -80t80 -118.5t29.5 -144q0 -77 -29.5 -144.5t-80 -118t-118.5 -80t-144 -29.5t-143.5 29.5t-118.5 80t-80.5 118t-29.5 144.5zM160 350q0 -52 20 -97.5t54.5 -80t80 -54.5t97.5 -20q51 0 97 20
t80.5 54.5t54.5 80t20 97.5q0 51 -20 97t-54.5 80t-80.5 54t-97 20q-52 0 -97.5 -20t-80 -54t-54.5 -80t-20 -97zM476 775h-143l149 170h143z" />
    <glyph glyph-name="Ocircumflex" unicode="&#xd4;" horiz-adv-x="824" 
d="M40 350q0 76 29.5 144t80.5 118.5t118.5 80t143.5 29.5t144 -29.5t118.5 -80t80 -118.5t29.5 -144q0 -77 -29.5 -144.5t-80 -118t-118.5 -80t-144 -29.5t-143.5 29.5t-118.5 80t-80.5 118t-29.5 144.5zM160 350q0 -52 20 -97.5t54.5 -80t80 -54.5t97.5 -20q51 0 97 20
t80.5 54.5t54.5 80t20 97.5q0 51 -20 97t-54.5 80t-80.5 54t-97 20q-52 0 -97.5 -20t-80 -54t-54.5 -80t-20 -97zM462 945l120 -170h-133l-40 56l-42 -56h-132l119 170h108z" />
    <glyph glyph-name="Otilde" unicode="&#xd5;" horiz-adv-x="824" 
d="M40 350q0 76 29.5 144t80.5 118.5t118.5 80t143.5 29.5t144 -29.5t118.5 -80t80 -118.5t29.5 -144q0 -77 -29.5 -144.5t-80 -118t-118.5 -80t-144 -29.5t-143.5 29.5t-118.5 80t-80.5 118t-29.5 144.5zM160 350q0 -52 20 -97.5t54.5 -80t80 -54.5t97.5 -20q51 0 97 20
t80.5 54.5t54.5 80t20 97.5q0 51 -20 97t-54.5 80t-80.5 54t-97 20q-52 0 -97.5 -20t-80 -54t-54.5 -80t-20 -97zM557 879q-25 -42 -56 -63.5t-63 -21.5q-34 0 -65 17q-3 1 -21 -28l-102 61q24 43 56 64.5t64 21.5q16 0 33 -4t32 -13q2 1 7.5 7t13.5 20z" />
    <glyph glyph-name="Odieresis" unicode="&#xd6;" horiz-adv-x="824" 
d="M40 350q0 76 29.5 144t80.5 118.5t118.5 80t143.5 29.5t144 -29.5t118.5 -80t80 -118.5t29.5 -144q0 -77 -29.5 -144.5t-80 -118t-118.5 -80t-144 -29.5t-143.5 29.5t-118.5 80t-80.5 118t-29.5 144.5zM160 350q0 -52 20 -97.5t54.5 -80t80 -54.5t97.5 -20q51 0 97 20
t80.5 54.5t54.5 80t20 97.5q0 51 -20 97t-54.5 80t-80.5 54t-97 20q-52 0 -97.5 -20t-80 -54t-54.5 -80t-20 -97zM245 859q0 27 18 45.5t46 18.5t46 -18.5t18 -45.5q0 -28 -18 -46.5t-46 -18.5t-46 18.5t-18 46.5zM438 859q0 27 18 45.5t46 18.5t46 -18.5t18 -45.5
q0 -28 -18 -46.5t-46 -18.5t-46 18.5t-18 46.5z" />
    <glyph glyph-name="multiply" unicode="&#xd7;" horiz-adv-x="536" 
d="M436 189l-81 -82l-87 87l-86 -87l-82 82l86 87l-85 84l83 82l84 -85l84 85l83 -82l-85 -84z" />
    <glyph glyph-name="Oslash" unicode="&#xd8;" horiz-adv-x="824" 
d="M40 350q0 76 29.5 144t80.5 118.5t118.5 80t143.5 29.5q14 0 28.5 -1t28.5 -3l30 92h123l-42 -129q26 -14 50 -31.5t44 -37.5q51 -51 80.5 -118.5t29.5 -143.5q0 -77 -29.5 -144.5t-80 -118t-118.5 -80t-144 -29.5q-15 0 -29.5 1.5t-28.5 3.5l-29 -90h-124l41 127
q-53 28 -92 67q-51 51 -80.5 118t-29.5 145zM589 527q-11 11 -22.5 20t-24.5 17l-151 -466h21q51 0 97 20t80.5 54.5t54.5 80t20 97.5q0 51 -20 97t-55 80zM160 350q0 -52 20 -97.5t54 -80.5q22 -22 46 -36l151 464q-5 1 -9.5 1h-9.5q-52 0 -97.5 -20t-80 -54t-54.5 -80
t-20 -97z" />
    <glyph glyph-name="Ugrave" unicode="&#xd9;" horiz-adv-x="650" 
d="M200 220q0 -26 9.5 -48t26 -38.5t38.5 -26t48 -9.5t48.5 9.5t39 26t26 38.5t9.5 48v480h120v-480q0 -51 -18.5 -95t-51.5 -77t-77.5 -51.5t-95.5 -18.5t-95 18.5t-77 51.5t-51.5 77t-18.5 95v480h120v-480zM110 945h143l149 -170h-143z" />
    <glyph glyph-name="Uacute" unicode="&#xda;" horiz-adv-x="650" 
d="M200 220q0 -26 9.5 -48t26 -38.5t38.5 -26t48 -9.5t48.5 9.5t39 26t26 38.5t9.5 48v480h120v-480q0 -51 -18.5 -95t-51.5 -77t-77.5 -51.5t-95.5 -18.5t-95 18.5t-77 51.5t-51.5 77t-18.5 95v480h120v-480zM398 775h-143l149 170h143z" />
    <glyph glyph-name="Ucircumflex" unicode="&#xdb;" horiz-adv-x="650" 
d="M200 220q0 -26 9.5 -48t26 -38.5t38.5 -26t48 -9.5t48.5 9.5t39 26t26 38.5t9.5 48v480h120v-480q0 -51 -18.5 -95t-51.5 -77t-77.5 -51.5t-95.5 -18.5t-95 18.5t-77 51.5t-51.5 77t-18.5 95v480h120v-480zM376 946l120 -170h-133l-40 56l-42 -56h-132l119 170h108z" />
    <glyph glyph-name="Udieresis" unicode="&#xdc;" horiz-adv-x="650" 
d="M200 220q0 -26 9.5 -48t26 -38.5t38.5 -26t48 -9.5t48.5 9.5t39 26t26 38.5t9.5 48v480h120v-480q0 -51 -18.5 -95t-51.5 -77t-77.5 -51.5t-95.5 -18.5t-95 18.5t-77 51.5t-51.5 77t-18.5 95v480h120v-480zM164 859q0 27 18 45.5t46 18.5t46 -18.5t18 -45.5
q0 -28 -18 -46.5t-46 -18.5t-46 18.5t-18 46.5zM357 859q0 27 18 45.5t46 18.5t46 -18.5t18 -45.5q0 -28 -18 -46.5t-46 -18.5t-46 18.5t-18 46.5z" />
    <glyph glyph-name="Yacute" unicode="&#xdd;" horiz-adv-x="573" 
d="M0 700h134l152 -295l152 295h135l-224 -427v-273h-125v271zM355 775h-143l149 170h143z" />
    <glyph glyph-name="Thorn" unicode="&#xde;" horiz-adv-x="574" 
d="M70 700h120v-111h100q112 0 175.5 -57t63.5 -169q0 -59 -17 -101t-48.5 -69t-75.5 -40t-98 -13h-100v-140h-120v700zM413 363q0 59 -33.5 83.5t-88.5 24.5h-101v-214h101q60 0 91 23t31 83z" />
    <glyph glyph-name="germandbls" unicode="&#xdf;" horiz-adv-x="546" 
d="M268 117q64 0 90 25.5t26 63.5q0 45 -26 66t-90 21h-30v126h21q43 0 63 27t20 62q0 41 -24 58.5t-61 17.5q-22 0 -34 -6t-18 -21t-7.5 -40.5t-1.5 -64.5v-452h-116v511q0 38 8 72.5t26.5 60.5t48.5 41t75 15q50 0 91.5 -11.5t71 -35.5t45.5 -61t16 -88q0 -37 -15 -70.5
t-35 -49.5q46 -22 70 -66t24 -110q0 -58 -20 -98t-53.5 -64.5t-76.5 -35t-89 -10.5h-29v117h30z" />
    <glyph glyph-name="agrave" unicode="&#xe0;" horiz-adv-x="635" 
d="M45 251q0 57 21.5 106.5t58.5 86t86.5 58t106.5 21.5t106.5 -21.5t86 -58t58 -86t21.5 -106.5v-251h-116v28q-68 -49 -156 -49q-62 0 -112.5 21t-86 58t-55 86.5t-19.5 106.5zM162 251q0 -32 12.5 -60.5t33.5 -49.5t49.5 -33.5t60.5 -12.5t60.5 11.5t49.5 32.5t33.5 49.5
t12.5 62.5q0 32 -12.5 60.5t-33.5 49.5t-49.5 33.5t-60.5 12.5t-60.5 -12.5t-49.5 -33.5t-33.5 -49.5t-12.5 -60.5zM102 748h143l149 -170h-143z" />
    <glyph glyph-name="aacute" unicode="&#xe1;" horiz-adv-x="635" 
d="M45 251q0 57 21.5 106.5t58.5 86t86.5 58t106.5 21.5t106.5 -21.5t86 -58t58 -86t21.5 -106.5v-251h-116v28q-68 -49 -156 -49q-62 0 -112.5 21t-86 58t-55 86.5t-19.5 106.5zM162 251q0 -32 12.5 -60.5t33.5 -49.5t49.5 -33.5t60.5 -12.5t60.5 11.5t49.5 32.5t33.5 49.5
t12.5 62.5q0 32 -12.5 60.5t-33.5 49.5t-49.5 33.5t-60.5 12.5t-60.5 -12.5t-49.5 -33.5t-33.5 -49.5t-12.5 -60.5zM386 578h-143l149 170h143z" />
    <glyph glyph-name="acircumflex" unicode="&#xe2;" horiz-adv-x="635" 
d="M45 251q0 57 21.5 106.5t58.5 86t86.5 58t106.5 21.5t106.5 -21.5t86 -58t58 -86t21.5 -106.5v-251h-116v28q-68 -49 -156 -49q-62 0 -112.5 21t-86 58t-55 86.5t-19.5 106.5zM162 251q0 -32 12.5 -60.5t33.5 -49.5t49.5 -33.5t60.5 -12.5t60.5 11.5t49.5 32.5t33.5 49.5
t12.5 62.5q0 32 -12.5 60.5t-33.5 49.5t-49.5 33.5t-60.5 12.5t-60.5 -12.5t-49.5 -33.5t-33.5 -49.5t-12.5 -60.5zM373 748l120 -170h-133l-40 56l-42 -56h-132l119 170h108z" />
    <glyph glyph-name="atilde" unicode="&#xe3;" horiz-adv-x="635" 
d="M45 251q0 57 21.5 106.5t58.5 86t86.5 58t106.5 21.5t106.5 -21.5t86 -58t58 -86t21.5 -106.5v-251h-116v28q-68 -49 -156 -49q-62 0 -112.5 21t-86 58t-55 86.5t-19.5 106.5zM162 251q0 -32 12.5 -60.5t33.5 -49.5t49.5 -33.5t60.5 -12.5t60.5 11.5t49.5 32.5t33.5 49.5
t12.5 62.5q0 32 -12.5 60.5t-33.5 49.5t-49.5 33.5t-60.5 12.5t-60.5 -12.5t-49.5 -33.5t-33.5 -49.5t-12.5 -60.5zM469 682q-25 -42 -56 -63.5t-63 -21.5q-34 0 -65 17q-3 1 -21 -28l-102 61q24 43 56 64.5t64 21.5q16 0 33 -4t32 -13q2 1 7.5 7t13.5 20z" />
    <glyph glyph-name="adieresis" unicode="&#xe4;" horiz-adv-x="635" 
d="M45 251q0 57 21.5 106.5t58.5 86t86.5 58t106.5 21.5t106.5 -21.5t86 -58t58 -86t21.5 -106.5v-251h-116v28q-68 -49 -156 -49q-62 0 -112.5 21t-86 58t-55 86.5t-19.5 106.5zM162 251q0 -32 12.5 -60.5t33.5 -49.5t49.5 -33.5t60.5 -12.5t60.5 11.5t49.5 32.5t33.5 49.5
t12.5 62.5q0 32 -12.5 60.5t-33.5 49.5t-49.5 33.5t-60.5 12.5t-60.5 -12.5t-49.5 -33.5t-33.5 -49.5t-12.5 -60.5zM157 661q0 27 18 45.5t46 18.5t46 -18.5t18 -45.5q0 -28 -18 -46.5t-46 -18.5t-46 18.5t-18 46.5zM350 661q0 27 18 45.5t46 18.5t46 -18.5t18 -45.5
q0 -28 -18 -46.5t-46 -18.5t-46 18.5t-18 46.5z" />
    <glyph glyph-name="aring" unicode="&#xe5;" horiz-adv-x="635" 
d="M45 251q0 57 21.5 106.5t58.5 86t86.5 58t106.5 21.5t106.5 -21.5t86 -58t58 -86t21.5 -106.5v-251h-116v28q-68 -49 -156 -49q-62 0 -112.5 21t-86 58t-55 86.5t-19.5 106.5zM162 251q0 -32 12.5 -60.5t33.5 -49.5t49.5 -33.5t60.5 -12.5t60.5 11.5t49.5 32.5t33.5 49.5
t12.5 62.5q0 32 -12.5 60.5t-33.5 49.5t-49.5 33.5t-60.5 12.5t-60.5 -12.5t-49.5 -33.5t-33.5 -49.5t-12.5 -60.5zM285 682q0 -14 9.5 -23.5t23.5 -9.5t24 9.5t10 23.5t-10 24t-24 10t-23.5 -10t-9.5 -24zM214 682q0 22 8 41t22 33t33 22.5t41 8.5t41 -8.5t33 -22.5
t22.5 -33t8.5 -41t-8.5 -41t-22.5 -33t-33 -22t-41 -8q-44 0 -74 30t-30 74z" />
    <glyph glyph-name="ccedilla" unicode="&#xe7;" horiz-adv-x="602" 
d="M162 251q0 -32 12.5 -60.5t33.5 -49.5t49.5 -33.5t60.5 -12.5q39 0 71 14.5t52 42.5h130q-32 -75 -84.5 -115.5t-115.5 -52.5v-37q39 -11 66.5 -43t27.5 -74q0 -26 -10 -47.5t-26.5 -38t-38.5 -25.5t-46 -9h-89v106h79q14 0 14 14t-14 14h-79v143q-45 10 -83.5 34.5
t-66.5 59.5t-44 78.5t-16 91.5q0 57 21.5 106.5t58.5 86t86.5 58t106.5 21.5q37 0 74.5 -9.5t71 -30.5t61.5 -53.5t47 -78.5h-131q-22 30 -54 43t-69 13q-32 0 -60.5 -12.5t-49.5 -33.5t-33.5 -49.5t-12.5 -60.5z" />
    <glyph glyph-name="egrave" unicode="&#xe8;" horiz-adv-x="621" 
d="M162 243q1 -31 14 -58t34 -47t49 -31.5t59 -11.5q52 0 89 25.5t54 68.5h127q-17 -57 -45 -97t-64 -65t-77 -36.5t-84 -11.5q-57 0 -106.5 21.5t-86.5 58t-58.5 86t-21.5 106.5t21.5 106.5t58.5 86t86.5 58t106.5 21.5q63 0 113 -23t85 -61.5t54.5 -89.5t20.5 -106h-429z
M460 321q-15 42 -53 71.5t-89 29.5t-89 -29.5t-53 -71.5h284zM102 748h143l149 -170h-143z" />
    <glyph glyph-name="eacute" unicode="&#xe9;" horiz-adv-x="621" 
d="M162 243q1 -31 14 -58t34 -47t49 -31.5t59 -11.5q52 0 89 25.5t54 68.5h127q-17 -57 -45 -97t-64 -65t-77 -36.5t-84 -11.5q-57 0 -106.5 21.5t-86.5 58t-58.5 86t-21.5 106.5t21.5 106.5t58.5 86t86.5 58t106.5 21.5q63 0 113 -23t85 -61.5t54.5 -89.5t20.5 -106h-429z
M460 321q-15 42 -53 71.5t-89 29.5t-89 -29.5t-53 -71.5h284zM383 578h-143l149 170h143z" />
    <glyph glyph-name="ecircumflex" unicode="&#xea;" horiz-adv-x="621" 
d="M162 243q1 -31 14 -58t34 -47t49 -31.5t59 -11.5q52 0 89 25.5t54 68.5h127q-17 -57 -45 -97t-64 -65t-77 -36.5t-84 -11.5q-57 0 -106.5 21.5t-86.5 58t-58.5 86t-21.5 106.5t21.5 106.5t58.5 86t86.5 58t106.5 21.5q63 0 113 -23t85 -61.5t54.5 -89.5t20.5 -106h-429z
M368 748l120 -170h-133l-40 56l-42 -56h-132l119 170h108zM460 321q-15 42 -53 71.5t-89 29.5t-89 -29.5t-53 -71.5h284z" />
    <glyph glyph-name="edieresis" unicode="&#xeb;" horiz-adv-x="621" 
d="M162 243q1 -31 14 -58t34 -47t49 -31.5t59 -11.5q52 0 89 25.5t54 68.5h127q-17 -57 -45 -97t-64 -65t-77 -36.5t-84 -11.5q-57 0 -106.5 21.5t-86.5 58t-58.5 86t-21.5 106.5t21.5 106.5t58.5 86t86.5 58t106.5 21.5q63 0 113 -23t85 -61.5t54.5 -89.5t20.5 -106h-429z
M160 661q0 27 18 45.5t46 18.5t46 -18.5t18 -45.5q0 -28 -18 -46.5t-46 -18.5t-46 18.5t-18 46.5zM353 661q0 27 18 45.5t46 18.5t46 -18.5t18 -45.5q0 -28 -18 -46.5t-46 -18.5t-46 18.5t-18 46.5zM460 321q-15 42 -53 71.5t-89 29.5t-89 -29.5t-53 -71.5h284z" />
    <glyph glyph-name="igrave" unicode="&#xec;" horiz-adv-x="263" 
d="M75 500h118v-500h-118v500zM-88 748h143l149 -170h-143z" />
    <glyph glyph-name="iacute" unicode="&#xed;" horiz-adv-x="263" 
d="M75 500h118v-500h-118v500zM209 578h-143l149 170h143z" />
    <glyph glyph-name="icircumflex" unicode="&#xee;" horiz-adv-x="263" 
d="M75 500h118v-500h-118v500zM186 748l120 -170h-133l-40 56l-42 -56h-132l119 170h108z" />
    <glyph glyph-name="idieresis" unicode="&#xef;" horiz-adv-x="263" 
d="M75 500h118v-500h-118v500zM-26 662q0 27 18 45.5t46 18.5t46 -18.5t18 -45.5q0 -28 -18 -46.5t-46 -18.5t-46 18.5t-18 46.5zM167 662q0 27 18 45.5t46 18.5t46 -18.5t18 -45.5q0 -28 -18 -46.5t-46 -18.5t-46 18.5t-18 46.5z" />
    <glyph glyph-name="eth" unicode="&#xf0;" horiz-adv-x="640" 
d="M153 649l101 48q-57 36 -110 47l65 83q73 -16 154 -78l126 60l25 -55l-102 -49q37 -37 70.5 -85.5t58.5 -106.5t39.5 -124t14.5 -138q0 -56 -22.5 -105.5t-60.5 -86.5t-88.5 -58.5t-106.5 -21.5t-105.5 21.5t-86.5 58.5t-58.5 86.5t-21.5 105.5t21.5 105.5t58.5 86.5
t86.5 58.5t105.5 21.5q57 0 109 -23q-20 48 -51 87t-66 69l-130 -62zM162 251q0 -32 12.5 -60.5t33.5 -49.5t49.5 -33.5t60.5 -12.5t60.5 12.5t49.5 33.5t33.5 49.5t12.5 60.5t-12.5 60.5t-33.5 49.5t-49.5 33.5t-60.5 12.5t-60.5 -12.5t-49.5 -33.5t-33.5 -49.5
t-12.5 -60.5z" />
    <glyph glyph-name="ntilde" unicode="&#xf1;" horiz-adv-x="590" 
d="M407 295q0 22 -8.5 42t-23.5 35t-35 24t-43 9t-43 -9.5t-35 -24.5t-24 -35t-9 -41v-295h-116v500h116v-29q20 25 48.5 38.5t62.5 13.5q46 0 87.5 -18t73 -49t49.5 -72.5t18 -88.5v-295h-118v295zM455 682q-25 -42 -56 -63.5t-63 -21.5q-34 0 -65 17q-3 1 -21 -28l-102 61
q24 43 56 64.5t64 21.5q16 0 33 -4t32 -13q2 1 7.5 7t13.5 20z" />
    <glyph glyph-name="ograve" unicode="&#xf2;" horiz-adv-x="635" 
d="M45 251q0 57 21.5 106.5t58.5 86t86.5 58t106.5 21.5t106.5 -21.5t86 -58t58 -86t21.5 -106.5t-21.5 -106.5t-58 -86t-86 -58t-106.5 -21.5t-106.5 21.5t-86.5 58t-58.5 86t-21.5 106.5zM162 251q0 -32 12.5 -60.5t33.5 -49.5t49.5 -33.5t60.5 -12.5t60.5 12.5t49.5 33.5
t33.5 49.5t12.5 60.5t-12.5 60.5t-33.5 49.5t-49.5 33.5t-60.5 12.5t-60.5 -12.5t-49.5 -33.5t-33.5 -49.5t-12.5 -60.5zM101 748h143l149 -170h-143z" />
    <glyph glyph-name="oacute" unicode="&#xf3;" horiz-adv-x="635" 
d="M45 251q0 57 21.5 106.5t58.5 86t86.5 58t106.5 21.5t106.5 -21.5t86 -58t58 -86t21.5 -106.5t-21.5 -106.5t-58 -86t-86 -58t-106.5 -21.5t-106.5 21.5t-86.5 58t-58.5 86t-21.5 106.5zM162 251q0 -32 12.5 -60.5t33.5 -49.5t49.5 -33.5t60.5 -12.5t60.5 12.5t49.5 33.5
t33.5 49.5t12.5 60.5t-12.5 60.5t-33.5 49.5t-49.5 33.5t-60.5 12.5t-60.5 -12.5t-49.5 -33.5t-33.5 -49.5t-12.5 -60.5zM383 578h-143l149 170h143z" />
    <glyph glyph-name="ocircumflex" unicode="&#xf4;" horiz-adv-x="635" 
d="M45 251q0 57 21.5 106.5t58.5 86t86.5 58t106.5 21.5t106.5 -21.5t86 -58t58 -86t21.5 -106.5t-21.5 -106.5t-58 -86t-86 -58t-106.5 -21.5t-106.5 21.5t-86.5 58t-58.5 86t-21.5 106.5zM162 251q0 -32 12.5 -60.5t33.5 -49.5t49.5 -33.5t60.5 -12.5t60.5 12.5t49.5 33.5
t33.5 49.5t12.5 60.5t-12.5 60.5t-33.5 49.5t-49.5 33.5t-60.5 12.5t-60.5 -12.5t-49.5 -33.5t-33.5 -49.5t-12.5 -60.5zM371 748l120 -170h-133l-40 56l-42 -56h-132l119 170h108z" />
    <glyph glyph-name="otilde" unicode="&#xf5;" horiz-adv-x="635" 
d="M45 251q0 57 21.5 106.5t58.5 86t86.5 58t106.5 21.5t106.5 -21.5t86 -58t58 -86t21.5 -106.5t-21.5 -106.5t-58 -86t-86 -58t-106.5 -21.5t-106.5 21.5t-86.5 58t-58.5 86t-21.5 106.5zM162 251q0 -32 12.5 -60.5t33.5 -49.5t49.5 -33.5t60.5 -12.5t60.5 12.5t49.5 33.5
t33.5 49.5t12.5 60.5t-12.5 60.5t-33.5 49.5t-49.5 33.5t-60.5 12.5t-60.5 -12.5t-49.5 -33.5t-33.5 -49.5t-12.5 -60.5zM473 682q-25 -42 -56 -63.5t-63 -21.5q-34 0 -65 17q-3 1 -21 -28l-102 61q24 43 56 64.5t64 21.5q16 0 33 -4t32 -13q2 1 7.5 7t13.5 20z" />
    <glyph glyph-name="odieresis" unicode="&#xf6;" horiz-adv-x="635" 
d="M45 251q0 57 21.5 106.5t58.5 86t86.5 58t106.5 21.5t106.5 -21.5t86 -58t58 -86t21.5 -106.5t-21.5 -106.5t-58 -86t-86 -58t-106.5 -21.5t-106.5 21.5t-86.5 58t-58.5 86t-21.5 106.5zM162 251q0 -32 12.5 -60.5t33.5 -49.5t49.5 -33.5t60.5 -12.5t60.5 12.5t49.5 33.5
t33.5 49.5t12.5 60.5t-12.5 60.5t-33.5 49.5t-49.5 33.5t-60.5 12.5t-60.5 -12.5t-49.5 -33.5t-33.5 -49.5t-12.5 -60.5zM160 662q0 27 18 45.5t46 18.5t46 -18.5t18 -45.5q0 -28 -18 -46.5t-46 -18.5t-46 18.5t-18 46.5zM353 662q0 27 18 45.5t46 18.5t46 -18.5t18 -45.5
q0 -28 -18 -46.5t-46 -18.5t-46 18.5t-18 46.5z" />
    <glyph glyph-name="divide" unicode="&#xf7;" horiz-adv-x="558" 
d="M212 64q0 28 18 46.5t46 18.5t46 -18.5t18 -46.5q0 -27 -18 -45.5t-46 -18.5t-46 18.5t-18 45.5zM212 436q0 27 18 45.5t46 18.5t46 -18.5t18 -45.5q0 -28 -18 -46.5t-46 -18.5t-46 18.5t-18 46.5zM458 306v-116h-358v116h358z" />
    <glyph glyph-name="oslash" unicode="&#xf8;" horiz-adv-x="635" 
d="M181 15q-62 35 -99 97.5t-37 138.5q0 57 21.5 106.5t58.5 86t86.5 58t106.5 21.5q7 0 14 -0.5t14 -1.5l28 87h123l-40 -123q60 -36 96.5 -97.5t36.5 -136.5q0 -57 -21.5 -106.5t-58 -86t-86 -58t-106.5 -21.5q-6 0 -12.5 0.5t-12.5 0.5l-23 -72h-124zM162 251
q0 -36 15.5 -67t41.5 -53l89 276q-30 -2 -57 -15t-46.5 -34t-31 -48.5t-11.5 -58.5zM474 251q0 35 -15 65t-40 52l-88 -273q30 3 56 16t45.5 34t30.5 48.5t11 57.5z" />
    <glyph glyph-name="ugrave" unicode="&#xf9;" horiz-adv-x="585" 
d="M404 500h116v-293q0 -47 -18 -88t-48.5 -72.5t-72 -49.5t-88.5 -18t-88 18t-72.5 49.5t-49.5 73t-18 88.5v292h116v-293q0 -23 9 -43t24 -35t35.5 -23.5t43.5 -8.5q22 0 42.5 8.5t35.5 23.5t24 35t9 43v293zM75 748h143l149 -170h-143z" />
    <glyph glyph-name="uacute" unicode="&#xfa;" horiz-adv-x="585" 
d="M404 500h116v-293q0 -47 -18 -88t-48.5 -72.5t-72 -49.5t-88.5 -18t-88 18t-72.5 49.5t-49.5 73t-18 88.5v292h116v-293q0 -23 9 -43t24 -35t35.5 -23.5t43.5 -8.5q22 0 42.5 8.5t35.5 23.5t24 35t9 43v293zM362 578h-143l149 170h143z" />
    <glyph glyph-name="ucircumflex" unicode="&#xfb;" horiz-adv-x="585" 
d="M404 500h116v-293q0 -47 -18 -88t-48.5 -72.5t-72 -49.5t-88.5 -18t-88 18t-72.5 49.5t-49.5 73t-18 88.5v292h116v-293q0 -23 9 -43t24 -35t35.5 -23.5t43.5 -8.5q22 0 42.5 8.5t35.5 23.5t24 35t9 43v293zM345 748l120 -170h-133l-40 56l-42 -56h-132l119 170h108z" />
    <glyph glyph-name="udieresis" unicode="&#xfc;" horiz-adv-x="585" 
d="M404 500h116v-293q0 -47 -18 -88t-48.5 -72.5t-72 -49.5t-88.5 -18t-88 18t-72.5 49.5t-49.5 73t-18 88.5v292h116v-293q0 -23 9 -43t24 -35t35.5 -23.5t43.5 -8.5q22 0 42.5 8.5t35.5 23.5t24 35t9 43v293zM132 662q0 27 18 45.5t46 18.5t46 -18.5t18 -45.5
q0 -28 -18 -46.5t-46 -18.5t-46 18.5t-18 46.5zM325 662q0 27 18 45.5t46 18.5t46 -18.5t18 -45.5q0 -28 -18 -46.5t-46 -18.5t-46 18.5t-18 46.5z" />
    <glyph glyph-name="yacute" unicode="&#xfd;" horiz-adv-x="585" 
d="M404 500h116v-298q0 -38 -10 -73.5t-31 -65.5t-52.5 -52t-74.5 -32v-177h-117v178q-38 12 -69 34t-53.5 50.5t-35 63.5t-12.5 74v298h118v-298q0 -23 8.5 -43t23.5 -35t35 -24t43 -9q22 0 42.5 8.5t35.5 23.5t24 35t9 43v299zM363 578h-143l149 170h143z" />
    <glyph glyph-name="thorn" unicode="&#xfe;" horiz-adv-x="554" 
d="M80 700h120v-251h70q112 0 175.5 -57t63.5 -169q0 -59 -17 -101t-48.5 -69t-75.5 -40t-98 -13h-70v-198h-120v898zM393 223q0 59 -33.5 83.5t-88.5 24.5h-71v-214h71q60 0 91 23t31 83z" />
    <glyph glyph-name="ydieresis" unicode="&#xff;" horiz-adv-x="585" 
d="M404 500h116v-298q0 -38 -10 -73.5t-31 -65.5t-52.5 -52t-74.5 -32v-177h-117v178q-38 12 -69 34t-53.5 50.5t-35 63.5t-12.5 74v298h118v-298q0 -23 8.5 -43t23.5 -35t35 -24t43 -9q22 0 42.5 8.5t35.5 23.5t24 35t9 43v299zM132 662q0 27 18 45.5t46 18.5t46 -18.5
t18 -45.5q0 -28 -18 -46.5t-46 -18.5t-46 18.5t-18 46.5zM325 662q0 27 18 45.5t46 18.5t46 -18.5t18 -45.5q0 -28 -18 -46.5t-46 -18.5t-46 18.5t-18 46.5z" />
    <glyph glyph-name="aogonek" unicode="&#x105;" horiz-adv-x="635" 
d="M45 251q0 57 21.5 106.5t58.5 86t86.5 58t106.5 21.5t106.5 -21.5t86 -58t58 -86t21.5 -106.5v-251h-116v28q-23 -17 -47 -27t-50 -16v-141h-79q-14 0 -14 -14t14 -14h79v-106h-89q-24 0 -46 9t-38.5 25.5t-26.5 38t-10 47.5q0 42 27.5 74t66.5 43v37q-50 9 -90 33
t-68 59t-43 80t-15 95zM162 251q0 -32 12.5 -60.5t33.5 -49.5t49.5 -33.5t60.5 -12.5t60.5 11.5t49.5 32.5t33.5 49.5t12.5 62.5q0 32 -12.5 60.5t-33.5 49.5t-49.5 33.5t-60.5 12.5t-60.5 -12.5t-49.5 -33.5t-33.5 -49.5t-12.5 -60.5z" />
    <glyph glyph-name="Cacute" unicode="&#x106;" horiz-adv-x="777" 
d="M159 350q0 -52 20 -97.5t54.5 -80t80.5 -54.5t98 -20t98 20.5t81 55.5h151q-23 -43 -56.5 -79t-75.5 -62t-92 -40.5t-106 -14.5q-77 0 -144.5 29.5t-118 80t-80 118t-29.5 144.5q0 76 29.5 144t80 118.5t118 80t144.5 29.5q57 0 107 -16t92.5 -43.5t75.5 -63.5t55 -76
h-152q-36 36 -81 57t-97 21t-98 -20t-80.5 -54t-54.5 -80t-20 -97zM475 775h-143l149 170h143z" />
    <glyph glyph-name="cacute" unicode="&#x107;" horiz-adv-x="602" 
d="M162 251q0 -32 12.5 -60.5t33.5 -49.5t49.5 -33.5t60.5 -12.5q39 0 71 14.5t52 42.5h130q-19 -45 -46.5 -78t-60.5 -54t-70 -31t-76 -10q-57 0 -106.5 21.5t-86.5 58t-58.5 86t-21.5 106.5t21.5 106.5t58.5 86t86.5 58t106.5 21.5q37 0 74.5 -9.5t71 -30.5t61.5 -53.5
t47 -78.5h-131q-22 30 -54 43t-69 13q-32 0 -60.5 -12.5t-49.5 -33.5t-33.5 -49.5t-12.5 -60.5zM383 578h-143l149 170h143z" />
    <glyph glyph-name="Ccircumflex" unicode="&#x108;" horiz-adv-x="777" 
d="M159 350q0 -52 20 -97.5t54.5 -80t80.5 -54.5t98 -20t98 20.5t81 55.5h151q-23 -43 -56.5 -79t-75.5 -62t-92 -40.5t-106 -14.5q-77 0 -144.5 29.5t-118 80t-80 118t-29.5 144.5q0 76 29.5 144t80 118.5t118 80t144.5 29.5q57 0 107 -16t92.5 -43.5t75.5 -63.5t55 -76
h-152q-36 36 -81 57t-97 21t-98 -20t-80.5 -54t-54.5 -80t-20 -97zM464 945l120 -170h-133l-40 56l-42 -56h-132l119 170h108z" />
    <glyph glyph-name="ccircumflex" unicode="&#x109;" horiz-adv-x="602" 
d="M162 251q0 -32 12.5 -60.5t33.5 -49.5t49.5 -33.5t60.5 -12.5q39 0 71 14.5t52 42.5h130q-19 -45 -46.5 -78t-60.5 -54t-70 -31t-76 -10q-57 0 -106.5 21.5t-86.5 58t-58.5 86t-21.5 106.5t21.5 106.5t58.5 86t86.5 58t106.5 21.5q37 0 74.5 -9.5t71 -30.5t61.5 -53.5
t47 -78.5h-131q-22 30 -54 43t-69 13q-32 0 -60.5 -12.5t-49.5 -33.5t-33.5 -49.5t-12.5 -60.5zM369 748l120 -170h-133l-40 56l-42 -56h-132l119 170h108z" />
    <glyph glyph-name="Cdotaccent" unicode="&#x10a;" horiz-adv-x="777" 
d="M159 350q0 -52 20 -97.5t54.5 -80t80.5 -54.5t98 -20t98 20.5t81 55.5h151q-23 -43 -56.5 -79t-75.5 -62t-92 -40.5t-106 -14.5q-77 0 -144.5 29.5t-118 80t-80 118t-29.5 144.5q0 76 29.5 144t80 118.5t118 80t144.5 29.5q57 0 107 -16t92.5 -43.5t75.5 -63.5t55 -76
h-152q-36 36 -81 57t-97 21t-98 -20t-80.5 -54t-54.5 -80t-20 -97zM348 858q0 28 18.5 46t45.5 18q28 0 46 -18t18 -46t-18 -46t-46 -18q-27 0 -45.5 18t-18.5 46z" />
    <glyph glyph-name="cdotaccent" unicode="&#x10b;" horiz-adv-x="602" 
d="M162 251q0 -32 12.5 -60.5t33.5 -49.5t49.5 -33.5t60.5 -12.5q39 0 71 14.5t52 42.5h130q-19 -45 -46.5 -78t-60.5 -54t-70 -31t-76 -10q-57 0 -106.5 21.5t-86.5 58t-58.5 86t-21.5 106.5t21.5 106.5t58.5 86t86.5 58t106.5 21.5q37 0 74.5 -9.5t71 -30.5t61.5 -53.5
t47 -78.5h-131q-22 30 -54 43t-69 13q-32 0 -60.5 -12.5t-49.5 -33.5t-33.5 -49.5t-12.5 -60.5zM251 661q0 28 18.5 46t45.5 18q28 0 46 -18t18 -46t-18 -46t-46 -18q-27 0 -45.5 18t-18.5 46z" />
    <glyph glyph-name="Ccaron" unicode="&#x10c;" horiz-adv-x="777" 
d="M159 350q0 -52 20 -97.5t54.5 -80t80.5 -54.5t98 -20t98 20.5t81 55.5h151q-23 -43 -56.5 -79t-75.5 -62t-92 -40.5t-106 -14.5q-77 0 -144.5 29.5t-118 80t-80 118t-29.5 144.5q0 76 29.5 144t80 118.5t118 80t144.5 29.5q57 0 107 -16t92.5 -43.5t75.5 -63.5t55 -76
h-152q-36 36 -81 57t-97 21t-98 -20t-80.5 -54t-54.5 -80t-20 -97zM356 775l-119 170h133l41 -57l40 57h133l-120 -170h-108z" />
    <glyph glyph-name="ccaron" unicode="&#x10d;" horiz-adv-x="602" 
d="M162 251q0 -32 12.5 -60.5t33.5 -49.5t49.5 -33.5t60.5 -12.5q39 0 71 14.5t52 42.5h130q-19 -45 -46.5 -78t-60.5 -54t-70 -31t-76 -10q-57 0 -106.5 21.5t-86.5 58t-58.5 86t-21.5 106.5t21.5 106.5t58.5 86t86.5 58t106.5 21.5q37 0 74.5 -9.5t71 -30.5t61.5 -53.5
t47 -78.5h-131q-22 30 -54 43t-69 13q-32 0 -60.5 -12.5t-49.5 -33.5t-33.5 -49.5t-12.5 -60.5zM263 578l-119 170h133l41 -57l40 57h133l-120 -170h-108z" />
    <glyph glyph-name="Dcaron" unicode="&#x10e;" horiz-adv-x="718" 
d="M80 700h244q73 0 136.5 -29t110.5 -78t74.5 -114.5t27.5 -137.5t-27.5 -134.5t-74.5 -108.5t-110.5 -72t-136.5 -26h-244v700zM324 120q48 0 89.5 16.5t73 46t49.5 70t18 88.5q0 47 -18 90.5t-49.5 76.5t-73 52.5t-89.5 19.5h-124v-460h124zM284 775l-119 170h133l41 -57
l40 57h133l-120 -170h-108z" />
    <glyph glyph-name="Edotaccent" unicode="&#x116;" horiz-adv-x="604" 
d="M80 700h484v-120h-364v-210h300v-119h-300v-131h364v-120h-484v700zM258 858q0 28 18.5 46t45.5 18q28 0 46 -18t18 -46t-18 -46t-46 -18q-27 0 -45.5 18t-18.5 46z" />
    <glyph glyph-name="edotaccent" unicode="&#x117;" horiz-adv-x="621" 
d="M162 243q1 -31 14 -58t34 -47t49 -31.5t59 -11.5q52 0 89 25.5t54 68.5h127q-17 -57 -45 -97t-64 -65t-77 -36.5t-84 -11.5q-57 0 -106.5 21.5t-86.5 58t-58.5 86t-21.5 106.5t21.5 106.5t58.5 86t86.5 58t106.5 21.5q63 0 113 -23t85 -61.5t54.5 -89.5t20.5 -106h-429z
M254 660q0 28 18.5 46t45.5 18q28 0 46 -18t18 -46t-18 -46t-46 -18q-27 0 -45.5 18t-18.5 46zM460 321q-15 42 -53 71.5t-89 29.5t-89 -29.5t-53 -71.5h284z" />
    <glyph glyph-name="Eogonek" unicode="&#x118;" horiz-adv-x="604" 
d="M382 0v-156h-79q-14 0 -14 -14t14 -14h79v-106h-89q-24 0 -46 9t-38.5 25.5t-26.5 38t-10 47.5q0 42 27.5 74t66.5 43v53h-186v700h484v-120h-364v-210h300v-119h-300v-131h364v-120h-182z" />
    <glyph glyph-name="eogonek" unicode="&#x119;" horiz-adv-x="621" 
d="M162 243q1 -31 14 -58t34 -47t49 -31.5t59 -11.5q52 0 89 25.5t54 68.5h127q-29 -95 -86 -143t-126 -61v-141h-79q-14 0 -14 -14t14 -14h79v-106h-89q-24 0 -46 9t-38.5 25.5t-26.5 38t-10 47.5q0 42 27.5 74t66.5 43v38q-46 10 -85.5 34t-68 59.5t-45 79.5t-16.5 93
q0 57 21.5 106.5t58.5 86t86.5 58t106.5 21.5q63 0 113 -23t85 -61.5t54.5 -89.5t20.5 -106h-429zM460 321q-15 42 -53 71.5t-89 29.5t-89 -29.5t-53 -71.5h284z" />
    <glyph glyph-name="Ecaron" unicode="&#x11a;" horiz-adv-x="604" 
d="M80 700h484v-120h-364v-210h300v-119h-300v-131h364v-120h-484v700zM264 774l-119 170h133l41 -57l40 57h133l-120 -170h-108z" />
    <glyph glyph-name="ecaron" unicode="&#x11b;" horiz-adv-x="621" 
d="M162 243q1 -31 14 -58t34 -47t49 -31.5t59 -11.5q52 0 89 25.5t54 68.5h127q-17 -57 -45 -97t-64 -65t-77 -36.5t-84 -11.5q-57 0 -106.5 21.5t-86.5 58t-58.5 86t-21.5 106.5t21.5 106.5t58.5 86t86.5 58t106.5 21.5q63 0 113 -23t85 -61.5t54.5 -89.5t20.5 -106h-429z
M265 578l-119 170h133l41 -57l40 57h133l-120 -170h-108zM460 321q-15 42 -53 71.5t-89 29.5t-89 -29.5t-53 -71.5h284z" />
    <glyph glyph-name="Gcircumflex" unicode="&#x11c;" horiz-adv-x="816" 
d="M766 370q0 -89 -20 -161t-63 -123.5t-110 -79.5t-161 -28q-77 0 -144.5 29.5t-118 80t-80 118t-29.5 144.5q0 76 29.5 144t80 118.5t118 80t144.5 29.5q64 0 118.5 -18t98 -50t75.5 -75.5t52 -94.5h-134q-15 28 -37.5 49.5t-50 36.5t-59 23t-63.5 8q-52 0 -98 -20
t-80.5 -54t-54.5 -80t-20 -97t20 -97t54.5 -80.5t80.5 -54.5t98 -20q94 0 151.5 39t68.5 114h-209v119h343zM462 945l120 -170h-133l-40 56l-42 -56h-132l119 170h108z" />
    <glyph glyph-name="gcircumflex" unicode="&#x11d;" horiz-adv-x="639" 
d="M371 748l120 -170h-133l-40 56l-42 -56h-132l119 170h108zM317 526q43 0 82.5 -13t73.5 -36v23h116v-451q0 -64 -21.5 -114.5t-58 -85.5t-86 -53.5t-106.5 -18.5q-42 0 -80 12t-69.5 31.5t-55.5 44t-39 50.5l70 73q45 -55 85 -75t89 -20q24 0 50 7.5t47.5 23.5t35.5 41
t14 60q-32 -20 -68.5 -31.5t-78.5 -11.5q-43 0 -80 12q-41 14 -76.5 39.5t-61 59t-40 74.5t-14.5 87q0 57 21.5 106.5t58 86t86 58t106.5 21.5zM161 254q0 -32 12.5 -60.5t33.5 -49.5t49.5 -33.5t60.5 -12.5t60.5 12.5t49.5 33.5t33.5 49.5t12.5 60.5t-12.5 60.5t-33.5 49.5
t-49.5 33.5t-60.5 12.5t-60.5 -12.5t-49.5 -33.5t-33.5 -49.5t-12.5 -60.5z" />
    <glyph glyph-name="Gdotaccent" unicode="&#x120;" horiz-adv-x="816" 
d="M766 370q0 -89 -20 -161t-63 -123.5t-110 -79.5t-161 -28q-77 0 -144.5 29.5t-118 80t-80 118t-29.5 144.5q0 76 29.5 144t80 118.5t118 80t144.5 29.5q64 0 118.5 -18t98 -50t75.5 -75.5t52 -94.5h-134q-15 28 -37.5 49.5t-50 36.5t-59 23t-63.5 8q-52 0 -98 -20
t-80.5 -54t-54.5 -80t-20 -97t20 -97t54.5 -80.5t80.5 -54.5t98 -20q94 0 151.5 39t68.5 114h-209v119h343zM347 858q0 28 18.5 46t45.5 18q28 0 46 -18t18 -46t-18 -46t-46 -18q-27 0 -45.5 18t-18.5 46z" />
    <glyph glyph-name="Itilde" unicode="&#x128;" horiz-adv-x="280" 
d="M80 700h120v-700h-120v700zM293 880q-25 -42 -56 -63.5t-63 -21.5q-34 0 -65 17q-3 1 -21 -28l-102 61q24 43 56 64.5t64 21.5q16 0 33 -4t32 -13q2 1 7.5 7t13.5 20z" />
    <glyph glyph-name="dotlessi" unicode="&#x131;" horiz-adv-x="263" 
d="M75 500h118v-500h-118v500z" />
    <glyph glyph-name="nacute" unicode="&#x144;" horiz-adv-x="590" 
d="M407 295q0 22 -8.5 42t-23.5 35t-35 24t-43 9t-43 -9.5t-35 -24.5t-24 -35t-9 -41v-295h-116v500h116v-29q20 25 48.5 38.5t62.5 13.5q46 0 87.5 -18t73 -49t49.5 -72.5t18 -88.5v-295h-118v295zM364 578h-143l149 170h143z" />
    <glyph glyph-name="Ncaron" unicode="&#x147;" horiz-adv-x="654" 
d="M450 700h119v-700h-107l-257 440v-440h-120v700h108l257 -440v440zM267 775l-119 170h133l41 -57l40 57h133l-120 -170h-108z" />
    <glyph glyph-name="ncaron" unicode="&#x148;" horiz-adv-x="590" 
d="M407 295q0 22 -8.5 42t-23.5 35t-35 24t-43 9t-43 -9.5t-35 -24.5t-24 -35t-9 -41v-295h-116v500h116v-29q20 25 48.5 38.5t62.5 13.5q46 0 87.5 -18t73 -49t49.5 -72.5t18 -88.5v-295h-118v295zM249 578l-119 170h133l41 -57l40 57h133l-120 -170h-108z" />
    <glyph glyph-name="Racute" unicode="&#x154;" horiz-adv-x="579" 
d="M80 700h220q54 0 98.5 -14.5t75.5 -42.5t48 -70t17 -96q0 -55 -20.5 -102t-59.5 -68q12 -5 26 -13.5t26 -24.5t19.5 -42.5t7.5 -67.5v-159h-120v159q0 27 -9.5 44.5t-24.5 28t-34.5 15t-39.5 4.5h-110v-251h-120v700zM422 478q0 56 -35 82t-86 26h-101v-219h101
q58 0 89.5 26.5t31.5 84.5zM338 775h-143l149 170h143z" />
    <glyph glyph-name="racute" unicode="&#x155;" horiz-adv-x="384" 
d="M368 400q-32 0 -64.5 -12t-58.5 -35t-42.5 -56.5t-16.5 -75.5v-221h-116v500h116v-66q20 25 45.5 42t52.5 27.5t53 15t47 4.5zM302 578h-143l149 170h143z" />
    <glyph glyph-name="Rcaron" unicode="&#x158;" horiz-adv-x="579" 
d="M80 700h220q54 0 98.5 -14.5t75.5 -42.5t48 -70t17 -96q0 -55 -20.5 -102t-59.5 -68q12 -5 26 -13.5t26 -24.5t19.5 -42.5t7.5 -67.5v-159h-120v159q0 27 -9.5 44.5t-24.5 28t-34.5 15t-39.5 4.5h-110v-251h-120v700zM422 478q0 56 -35 82t-86 26h-101v-219h101
q58 0 89.5 26.5t31.5 84.5zM238 775l-119 170h133l41 -57l40 57h133l-120 -170h-108z" />
    <glyph glyph-name="rcaron" unicode="&#x159;" horiz-adv-x="417" 
d="M189 578l-119 170h133l41 -57l40 57h133l-120 -170h-108zM387 400q-32 0 -64.5 -12t-58.5 -35t-42.5 -56.5t-16.5 -75.5v-221h-116v500h116v-66q20 25 45.5 42t52.5 27.5t53 15t47 4.5z" />
    <glyph glyph-name="Sacute" unicode="&#x15a;" horiz-adv-x="584" 
d="M420 192q0 27 -13.5 46.5t-35.5 33.5t-50.5 24.5t-58.5 21.5q-32 11 -70 26.5t-70.5 39t-54.5 55.5t-22 76q0 42 20 80t53.5 66t77.5 44.5t92 16.5q64 0 108.5 -23.5t73 -56.5t42 -69.5t14.5 -61.5h-122q-10 45 -37.5 71t-79.5 26q-55 0 -88 -26t-33 -61q0 -22 14 -36.5
t34 -25t43.5 -18t43.5 -13.5q42 -14 84.5 -30.5t76.5 -42.5t55.5 -65t21.5 -98q0 -51 -20.5 -91t-55.5 -67t-80.5 -41.5t-94.5 -14.5q-50 0 -96.5 18t-83.5 52.5t-59 84.5t-22 115h120q0 -32 9.5 -60t27.5 -49t44 -33.5t59 -12.5q60 0 96.5 25.5t36.5 73.5zM352 775h-143
l149 170h143z" />
    <glyph glyph-name="sacute" unicode="&#x15b;" horiz-adv-x="435" 
d="M286 140q0 9 -2 17.5t-9.5 16t-21.5 15t-39 15.5l-56 17q-48 14 -83 50.5t-35 92.5q0 33 14.5 62t39 50.5t57 34t68.5 12.5q42 0 72 -15.5t50 -38t30.5 -48.5t12.5 -47h-117q-1 5 -4 13t-9 15.5t-16 13t-25 5.5q-23 0 -41 -12t-18 -35q0 -12 7.5 -21t19 -15t24.5 -10
t24 -8l55 -19q54 -19 87.5 -58t33.5 -105q0 -38 -15.5 -67.5t-41.5 -50t-60 -31.5t-71 -11q-38 0 -72 14t-59.5 38.5t-40.5 58.5t-15 74h117q0 -14 4 -28t12.5 -25t22 -18.5t33.5 -7.5q30 0 48.5 18t18.5 38zM293 578h-143l149 170h143z" />
    <glyph glyph-name="Scircumflex" unicode="&#x15c;" horiz-adv-x="584" 
d="M340 946l120 -170h-133l-40 56l-42 -56h-132l119 170h108zM420 192q0 27 -13.5 46.5t-35.5 33.5t-50.5 24.5t-58.5 21.5q-32 11 -70 26.5t-70.5 39t-54.5 55.5t-22 76q0 42 20 80t53.5 66t77.5 44.5t92 16.5q64 0 108.5 -23.5t73 -56.5t42 -69.5t14.5 -61.5h-122
q-10 45 -37.5 71t-79.5 26q-55 0 -88 -26t-33 -61q0 -22 14 -36.5t34 -25t43.5 -18t43.5 -13.5q42 -14 84.5 -30.5t76.5 -42.5t55.5 -65t21.5 -98q0 -51 -20.5 -91t-55.5 -67t-80.5 -41.5t-94.5 -14.5q-50 0 -96.5 18t-83.5 52.5t-59 84.5t-22 115h120q0 -32 9.5 -60
t27.5 -49t44 -33.5t59 -12.5q60 0 96.5 25.5t36.5 73.5z" />
    <glyph glyph-name="scircumflex" unicode="&#x15d;" horiz-adv-x="435" 
d="M270 748l120 -170h-133l-40 56l-42 -56h-132l119 170h108zM286 140q0 9 -2 17.5t-9.5 16t-21.5 15t-39 15.5l-56 17q-48 14 -83 50.5t-35 92.5q0 33 14.5 62t39 50.5t57 34t68.5 12.5q42 0 72 -15.5t50 -38t30.5 -48.5t12.5 -47h-117q-1 5 -4 13t-9 15.5t-16 13t-25 5.5
q-23 0 -41 -12t-18 -35q0 -12 7.5 -21t19 -15t24.5 -10t24 -8l55 -19q54 -19 87.5 -58t33.5 -105q0 -38 -15.5 -67.5t-41.5 -50t-60 -31.5t-71 -11q-38 0 -72 14t-59.5 38.5t-40.5 58.5t-15 74h117q0 -14 4 -28t12.5 -25t22 -18.5t33.5 -7.5q30 0 48.5 18t18.5 38z" />
    <glyph glyph-name="Scaron" unicode="&#x160;" horiz-adv-x="584" 
d="M235 775l-119 170h133l41 -57l40 57h133l-120 -170h-108zM420 192q0 27 -13.5 46.5t-35.5 33.5t-50.5 24.5t-58.5 21.5q-32 11 -70 26.5t-70.5 39t-54.5 55.5t-22 76q0 42 20 80t53.5 66t77.5 44.5t92 16.5q64 0 108.5 -23.5t73 -56.5t42 -69.5t14.5 -61.5h-122
q-10 45 -37.5 71t-79.5 26q-55 0 -88 -26t-33 -61q0 -22 14 -36.5t34 -25t43.5 -18t43.5 -13.5q42 -14 84.5 -30.5t76.5 -42.5t55.5 -65t21.5 -98q0 -51 -20.5 -91t-55.5 -67t-80.5 -41.5t-94.5 -14.5q-50 0 -96.5 18t-83.5 52.5t-59 84.5t-22 115h120q0 -32 9.5 -60
t27.5 -49t44 -33.5t59 -12.5q60 0 96.5 25.5t36.5 73.5z" />
    <glyph glyph-name="scaron" unicode="&#x161;" horiz-adv-x="435" 
d="M164 578l-119 170h133l41 -57l40 57h133l-120 -170h-108zM286 140q0 9 -2 17.5t-9.5 16t-21.5 15t-39 15.5l-56 17q-48 14 -83 50.5t-35 92.5q0 33 14.5 62t39 50.5t57 34t68.5 12.5q42 0 72 -15.5t50 -38t30.5 -48.5t12.5 -47h-117q-1 5 -4 13t-9 15.5t-16 13t-25 5.5
q-23 0 -41 -12t-18 -35q0 -12 7.5 -21t19 -15t24.5 -10t24 -8l55 -19q54 -19 87.5 -58t33.5 -105q0 -38 -15.5 -67.5t-41.5 -50t-60 -31.5t-71 -11q-38 0 -72 14t-59.5 38.5t-40.5 58.5t-15 74h117q0 -14 4 -28t12.5 -25t22 -18.5t33.5 -7.5q30 0 48.5 18t18.5 38z" />
    <glyph glyph-name="Utilde" unicode="&#x168;" horiz-adv-x="650" 
d="M200 220q0 -26 9.5 -48t26 -38.5t38.5 -26t48 -9.5t48.5 9.5t39 26t26 38.5t9.5 48v480h120v-480q0 -51 -18.5 -95t-51.5 -77t-77.5 -51.5t-95.5 -18.5t-95 18.5t-77 51.5t-51.5 77t-18.5 95v480h120v-480zM474 879q-25 -42 -56 -63.5t-63 -21.5q-34 0 -65 17
q-3 1 -21 -28l-102 61q24 43 56 64.5t64 21.5q16 0 33 -4t32 -13q2 1 7.5 7t13.5 20z" />
    <glyph glyph-name="utilde" unicode="&#x169;" horiz-adv-x="585" 
d="M404 500h116v-293q0 -47 -18 -88t-48.5 -72.5t-72 -49.5t-88.5 -18t-88 18t-72.5 49.5t-49.5 73t-18 88.5v292h116v-293q0 -23 9 -43t24 -35t35.5 -23.5t43.5 -8.5q22 0 42.5 8.5t35.5 23.5t24 35t9 43v293zM442 682q-25 -42 -56 -63.5t-63 -21.5q-34 0 -65 17
q-3 1 -21 -28l-102 61q24 43 56 64.5t64 21.5q16 0 33 -4t32 -13q2 1 7.5 7t13.5 20z" />
    <glyph glyph-name="Wcircumflex" unicode="&#x174;" horiz-adv-x="747" 
d="M425 945l120 -170h-133l-40 56l-42 -56h-132l119 170h108zM372 262l-157 -262h-106l-109 700h120l79 -498l173 261l174 -261l81 498h120l-110 -700h-106z" />
    <glyph glyph-name="wcircumflex" unicode="&#x175;" horiz-adv-x="921" 
d="M739 500h117v-293q0 -47 -18 -88.5t-48.5 -72.5t-72 -49t-88.5 -18q-51 0 -94 20t-75 55q-32 -35 -75 -55t-94 -20q-47 0 -88.5 18t-72 49t-48 72.5t-17.5 88.5v293h116v-293q0 -23 8.5 -43t23.5 -35t35 -24t43 -9q22 0 42.5 9t35.5 24t24 35t9 43v293h118v-293
q0 -24 8.5 -44.5t23.5 -35.5t34.5 -23t42.5 -8q22 0 42 9t35 24t24 35t9 43v293zM512 748l120 -170h-133l-40 56l-42 -56h-132l119 170h108z" />
    <glyph glyph-name="Ycircumflex" unicode="&#x176;" horiz-adv-x="573" 
d="M0 700h134l152 -295l152 295h135l-224 -427v-273h-125v271zM340 945l120 -170h-133l-40 56l-42 -56h-132l119 170h108z" />
    <glyph glyph-name="Ydieresis" unicode="&#x178;" horiz-adv-x="573" 
d="M0 700h134l152 -295l152 295h135l-224 -427v-273h-125v271zM126 859q0 27 18 45.5t46 18.5t46 -18.5t18 -45.5q0 -28 -18 -46.5t-46 -18.5t-46 18.5t-18 46.5zM319 859q0 27 18 45.5t46 18.5t46 -18.5t18 -45.5q0 -28 -18 -46.5t-46 -18.5t-46 18.5t-18 46.5z" />
    <glyph glyph-name="Zacute" unicode="&#x179;" horiz-adv-x="636" 
d="M97 700h499l-342 -580h342v-120h-556l341 580h-284v120zM385 775h-143l149 170h143z" />
    <glyph glyph-name="zacute" unicode="&#x17a;" horiz-adv-x="515" 
d="M83 500h402l-241 -384h241v-116h-455l240 384h-187v116zM333 578h-143l149 170h143z" />
    <glyph glyph-name="Zdotaccent" unicode="&#x17b;" horiz-adv-x="636" 
d="M293 858q0 28 18.5 46t45.5 18q28 0 46 -18t18 -46t-18 -46t-46 -18q-27 0 -45.5 18t-18.5 46zM97 700h499l-342 -580h342v-120h-556l341 580h-284v120z" />
    <glyph glyph-name="Zcaron" unicode="&#x17d;" horiz-adv-x="636" 
d="M299 775l-119 170h133l41 -57l40 57h133l-120 -170h-108zM97 700h499l-342 -580h342v-120h-556l341 580h-284v120z" />
    <glyph glyph-name="zcaron" unicode="&#x17e;" horiz-adv-x="515" 
d="M237 578l-119 170h133l41 -57l40 57h133l-120 -170h-108zM83 500h402l-241 -384h241v-116h-455l240 384h-187v116z" />
    <glyph glyph-name="circumflex" unicode="&#x2c6;" horiz-adv-x="547" 
d="M327 749l120 -170h-133l-40 56l-42 -56h-132l119 170h108z" />
    <glyph glyph-name="caron" unicode="&#x2c7;" horiz-adv-x="547" 
d="M219 578l-119 170h133l41 -57l40 57h133l-120 -170h-108z" />
    <glyph glyph-name="dotaccent" unicode="&#x2d9;" horiz-adv-x="328" 
d="M100 642q0 28 18.5 46t45.5 18q28 0 46 -18t18 -46t-18 -46t-46 -18q-27 0 -45.5 18t-18.5 46z" />
    <glyph glyph-name="ring" unicode="&#x2da;" horiz-adv-x="409" 
d="M171 679q0 -14 9.5 -23.5t23.5 -9.5t24 9.5t10 23.5t-10 24t-24 10t-23.5 -10t-9.5 -24zM100 679q0 22 8 41t22 33t33 22.5t41 8.5t41 -8.5t33 -22.5t22.5 -33t8.5 -41t-8.5 -41t-22.5 -33t-33 -22t-41 -8q-44 0 -74 30t-30 74z" />
    <glyph glyph-name="ogonek" unicode="&#x2db;" horiz-adv-x="410" 
d="M310 60v-216h-79q-14 0 -14 -14t14 -14h79v-106h-89q-24 0 -46 9t-38.5 25.5t-26.5 38t-10 47.5q0 42 27.5 74t66.5 43v113h116z" />
    <glyph glyph-name="tilde" unicode="&#x2dc;" horiz-adv-x="507" 
d="M407 664q-25 -42 -56 -63.5t-63 -21.5q-34 0 -65 17q-3 1 -21 -28l-102 61q24 43 56 64.5t64 21.5q16 0 33 -4t32 -13q2 1 7.5 7t13.5 20z" />
    <glyph glyph-name="Wgrave" unicode="&#x1e80;" horiz-adv-x="747" 
d="M372 262l-157 -262h-106l-109 700h120l79 -498l173 261l174 -261l81 498h120l-110 -700h-106zM157 945h143l149 -170h-143z" />
    <glyph glyph-name="wgrave" unicode="&#x1e81;" horiz-adv-x="921" 
d="M739 500h117v-293q0 -47 -18 -88.5t-48.5 -72.5t-72 -49t-88.5 -18q-51 0 -94 20t-75 55q-32 -35 -75 -55t-94 -20q-47 0 -88.5 18t-72 49t-48 72.5t-17.5 88.5v293h116v-293q0 -23 8.5 -43t23.5 -35t35 -24t43 -9q22 0 42.5 9t35.5 24t24 35t9 43v293h118v-293
q0 -24 8.5 -44.5t23.5 -35.5t34.5 -23t42.5 -8q22 0 42 9t35 24t24 35t9 43v293zM239 748h143l149 -170h-143z" />
    <glyph glyph-name="Wacute" unicode="&#x1e82;" horiz-adv-x="747" 
d="M372 262l-157 -262h-106l-109 700h120l79 -498l173 261l174 -261l81 498h120l-110 -700h-106zM435 775h-143l149 170h143z" />
    <glyph glyph-name="wacute" unicode="&#x1e83;" horiz-adv-x="921" 
d="M739 500h117v-293q0 -47 -18 -88.5t-48.5 -72.5t-72 -49t-88.5 -18q-51 0 -94 20t-75 55q-32 -35 -75 -55t-94 -20q-47 0 -88.5 18t-72 49t-48 72.5t-17.5 88.5v293h116v-293q0 -23 8.5 -43t23.5 -35t35 -24t43 -9q22 0 42.5 9t35.5 24t24 35t9 43v293h118v-293
q0 -24 8.5 -44.5t23.5 -35.5t34.5 -23t42.5 -8q22 0 42 9t35 24t24 35t9 43v293zM532 578h-143l149 170h143z" />
    <glyph glyph-name="Wdieresis" unicode="&#x1e84;" horiz-adv-x="747" 
d="M212 859q0 27 18 45.5t46 18.5t46 -18.5t18 -45.5q0 -28 -18 -46.5t-46 -18.5t-46 18.5t-18 46.5zM405 859q0 27 18 45.5t46 18.5t46 -18.5t18 -45.5q0 -28 -18 -46.5t-46 -18.5t-46 18.5t-18 46.5zM372 262l-157 -262h-106l-109 700h120l79 -498l173 261l174 -261
l81 498h120l-110 -700h-106z" />
    <glyph glyph-name="wdieresis" unicode="&#x1e85;" horiz-adv-x="921" 
d="M739 500h117v-293q0 -47 -18 -88.5t-48.5 -72.5t-72 -49t-88.5 -18q-51 0 -94 20t-75 55q-32 -35 -75 -55t-94 -20q-47 0 -88.5 18t-72 49t-48 72.5t-17.5 88.5v293h116v-293q0 -23 8.5 -43t23.5 -35t35 -24t43 -9q22 0 42.5 9t35.5 24t24 35t9 43v293h118v-293
q0 -24 8.5 -44.5t23.5 -35.5t34.5 -23t42.5 -8q22 0 42 9t35 24t24 35t9 43v293zM302 662q0 27 18 45.5t46 18.5t46 -18.5t18 -45.5q0 -28 -18 -46.5t-46 -18.5t-46 18.5t-18 46.5zM495 662q0 27 18 45.5t46 18.5t46 -18.5t18 -45.5q0 -28 -18 -46.5t-46 -18.5t-46 18.5
t-18 46.5z" />
    <glyph glyph-name="Ygrave" unicode="&#x1ef2;" horiz-adv-x="573" 
d="M0 700h134l152 -295l152 295h135l-224 -427v-273h-125v271zM63 945h143l149 -170h-143z" />
    <glyph glyph-name="ygrave" unicode="&#x1ef3;" horiz-adv-x="585" 
d="M404 500h116v-298q0 -38 -10 -73.5t-31 -65.5t-52.5 -52t-74.5 -32v-177h-117v178q-38 12 -69 34t-53.5 50.5t-35 63.5t-12.5 74v298h118v-298q0 -23 8.5 -43t23.5 -35t35 -24t43 -9q22 0 42.5 8.5t35.5 23.5t24 35t9 43v299zM86 748h143l149 -170h-143z" />
    <glyph glyph-name="endash" unicode="&#x2013;" 
d="M108 203v116h484v-116h-484z" />
    <glyph glyph-name="emdash" unicode="&#x2014;" 
d="M52 203v116h597v-116h-597z" />
    <glyph glyph-name="quoteleft" unicode="&#x2018;" horiz-adv-x="250" 
d="M210 575q0 -28 -18.5 -46.5t-45.5 -18.5q-28 0 -46.5 18.5t-18.5 46.5v35q0 25 5 41.5t22 30.5q22 18 36 18q8 0 11.5 -6t3.5 -14q0 -6 -1.5 -11.5t-3.5 -8.5t-3.5 -7.5t-1.5 -7.5q0 -5 11 -6q17 -3 27 -10t15 -16t6.5 -19t1.5 -19z" />
    <glyph glyph-name="quoteright" unicode="&#x2019;" horiz-adv-x="250" 
d="M40 635q0 28 18.5 46.5t45.5 18.5q28 0 46.5 -18.5t18.5 -46.5v-35q0 -25 -5 -41.5t-22 -30.5q-22 -18 -36 -18q-8 0 -11.5 6t-3.5 14q0 6 1.5 11.5t3.5 8.5t3.5 7.5t1.5 7.5q0 5 -11 6q-17 3 -27 10t-15 16t-6.5 19t-1.5 19z" />
    <glyph glyph-name="quotesinglbase" unicode="&#x201a;" horiz-adv-x="250" 
d="M40 64q0 28 18.5 46.5t45.5 18.5q28 0 46.5 -18.5t18.5 -46.5v-35q0 -25 -5 -41.5t-22 -30.5q-22 -18 -36 -18q-8 0 -11.5 6t-3.5 14q0 6 1.5 11.5t3.5 8.5t3.5 7.5t1.5 7.5q0 5 -11 6q-17 3 -27 10t-15 16t-6.5 19t-1.5 19z" />
    <glyph glyph-name="quotedblleft" unicode="&#x201c;" horiz-adv-x="400" 
d="M360 575q0 -28 -18.5 -46.5t-45.5 -18.5q-28 0 -46.5 18.5t-18.5 46.5v35q0 25 5 41.5t22 30.5q22 18 36 18q8 0 11.5 -6t3.5 -14q0 -6 -1.5 -11.5t-3.5 -8.5t-3.5 -7.5t-1.5 -7.5q0 -5 11 -6q17 -3 27 -10t15 -16t6.5 -19t1.5 -19zM200 575q0 -28 -18.5 -46.5
t-45.5 -18.5q-28 0 -46.5 18.5t-18.5 46.5v35q0 25 5 41.5t22 30.5q22 18 36 18q8 0 11.5 -6t3.5 -14q0 -6 -1.5 -11.5t-3.5 -8.5t-3.5 -7.5t-1.5 -7.5q0 -5 11 -6q17 -3 27 -10t15 -16t6.5 -19t1.5 -19z" />
    <glyph glyph-name="quotedblright" unicode="&#x201d;" horiz-adv-x="400" 
d="M40 635q0 28 18.5 46.5t45.5 18.5q28 0 46.5 -18.5t18.5 -46.5v-35q0 -25 -5 -41.5t-22 -30.5q-22 -18 -36 -18q-8 0 -11.5 6t-3.5 14q0 6 1.5 11.5t3.5 8.5t3.5 7.5t1.5 7.5q0 5 -11 6q-17 3 -27 10t-15 16t-6.5 19t-1.5 19zM200 635q0 28 18.5 46.5t45.5 18.5
q28 0 46.5 -18.5t18.5 -46.5v-35q0 -25 -5 -41.5t-22 -30.5q-22 -18 -36 -18q-8 0 -11.5 6t-3.5 14q0 6 1.5 11.5t3.5 8.5t3.5 7.5t1.5 7.5q0 5 -11 6q-17 3 -27 10t-15 16t-6.5 19t-1.5 19z" />
    <glyph glyph-name="quotedblbase" unicode="&#x201e;" horiz-adv-x="400" 
d="M40 64q0 28 18.5 46.5t45.5 18.5q28 0 46.5 -18.5t18.5 -46.5v-35q0 -25 -5 -41.5t-22 -30.5q-22 -18 -36 -18q-8 0 -11.5 6t-3.5 14q0 6 1.5 11.5t3.5 8.5t3.5 7.5t1.5 7.5q0 5 -11 6q-17 3 -27 10t-15 16t-6.5 19t-1.5 19zM200 63q0 28 18.5 46.5t45.5 18.5
q28 0 46.5 -18.5t18.5 -46.5v-35q0 -25 -5 -41.5t-22 -30.5q-22 -18 -36 -18q-8 0 -11.5 6t-3.5 14q0 6 1.5 11.5t3.5 8.5t3.5 7.5t1.5 7.5q0 5 -11 6q-17 3 -27 10t-15 16t-6.5 19t-1.5 19z" />
    <glyph glyph-name="dagger" unicode="&#x2020;" 
d="M589 500v-116h-182v-576h-116v576h-180v116h180v289h116v-289h182z" />
    <glyph glyph-name="daggerdbl" unicode="&#x2021;" 
d="M589 500v-116h-182v-72h182v-116h-182v-388h-116v388h-180v116h180v72h-180v116h180v289h116v-289h182z" />
    <glyph glyph-name="bullet" unicode="&#x2022;" 
d="M247 294q0 45 29 74t74 29t74 -29t29 -74t-29 -74t-74 -29t-74 29t-29 74z" />
    <glyph glyph-name="ellipsis" unicode="&#x2026;" horiz-adv-x="595" 
d="M50 64q0 28 18.5 46.5t45.5 18.5q28 0 46.5 -18.5t18.5 -46.5q0 -27 -18.5 -45.5t-46.5 -18.5q-27 0 -45.5 18.5t-18.5 45.5zM229 64q0 28 18.5 46.5t45.5 18.5q28 0 46 -18.5t18 -46.5q0 -27 -18 -45.5t-46 -18.5q-27 0 -45.5 18.5t-18.5 45.5zM417 64q0 28 18 46.5
t46 18.5t46 -18.5t18 -46.5q0 -27 -18 -45.5t-46 -18.5t-46 18.5t-18 45.5z" />
    <glyph glyph-name="perthousand" unicode="&#x2030;" 
d="M115 637q0 28 18 46t46 18q27 0 45.5 -18t18.5 -46q0 -27 -18.5 -45.5t-45.5 -18.5q-28 0 -46 18.5t-18 45.5zM266 0h-124l226 700h123zM346 64q0 28 18.5 46.5t45.5 18.5q28 0 46.5 -18.5t18.5 -46.5q0 -27 -18.5 -45.5t-46.5 -18.5q-27 0 -45.5 18.5t-18.5 45.5z
M509 64q0 28 18.5 46.5t45.5 18.5q28 0 46.5 -18.5t18.5 -46.5q0 -27 -18.5 -45.5t-46.5 -18.5q-27 0 -45.5 18.5t-18.5 45.5z" />
    <glyph glyph-name="guilsinglleft" unicode="&#x2039;" 
d="M430 499l81 -82l-177 -168l177 -168l-81 -82l-260 250z" />
    <glyph glyph-name="guilsinglright" unicode="&#x203a;" 
d="M530 249l-260 -250l-81 82l177 168l-177 168l81 82z" />
    <glyph glyph-name="fraction" unicode="&#x2044;" horiz-adv-x="549" 
d="M224 0h-124l226 700h123z" />
    <glyph glyph-name="minus" unicode="&#x2212;" horiz-adv-x="558" 
d="M458 319v-116h-358v116h358z" />
    </font>
</defs>
</svg>
